<svg width="60" height="60" viewBox="0 0 60 60" fill="none" xmlns="http://www.w3.org/2000/svg">
<path d="M12.2727 19.0909H13.6364V20.4545C13.6364 21.1779 13.9237 21.8716 14.4352 22.383C14.9466 22.8945 15.6403 23.1818 16.3636 23.1818C17.087 23.1818 17.7806 22.8945 18.2921 22.383C18.8036 21.8716 19.0909 21.1779 19.0909 20.4545V19.0909H20.4545C21.1779 19.0909 21.8716 18.8036 22.383 18.2921C22.8945 17.7806 23.1818 17.087 23.1818 16.3636C23.1818 15.6403 22.8945 14.9466 22.383 14.4352C21.8716 13.9237 21.1779 13.6364 20.4545 13.6364H19.0909V12.2727C19.0909 11.5494 18.8036 10.8557 18.2921 10.3443C17.7806 9.83279 17.087 9.54545 16.3636 9.54545C15.6403 9.54545 14.9466 9.83279 14.4352 10.3443C13.9237 10.8557 13.6364 11.5494 13.6364 12.2727V13.6364H12.2727C11.5494 13.6364 10.8557 13.9237 10.3443 14.4352C9.83279 14.9466 9.54545 15.6403 9.54545 16.3636C9.54545 17.087 9.83279 17.7806 10.3443 18.2921C10.8557 18.8036 11.5494 19.0909 12.2727 19.0909ZM10.5818 49.4182C11.0928 49.9261 11.784 50.2113 12.5045 50.2113C13.2251 50.2113 13.9163 49.9261 14.4273 49.4182L16.3636 47.4818L18.3 49.4182C18.811 49.9261 19.5022 50.2113 20.2227 50.2113C20.9432 50.2113 21.6345 49.9261 22.1455 49.4182C22.6534 48.9072 22.9385 48.216 22.9385 47.4955C22.9385 46.775 22.6534 46.0837 22.1455 45.5727L20.2091 43.6364L22.1455 41.7C22.5923 41.1783 22.8257 40.5072 22.7992 39.8208C22.7727 39.1344 22.4882 38.4833 22.0024 37.9976C21.5167 37.5118 20.8656 37.2273 20.1792 37.2008C19.4928 37.1743 18.8217 37.4077 18.3 37.8545L16.3636 39.7909L14.4273 37.8545C13.9055 37.4077 13.2344 37.1743 12.548 37.2008C11.8616 37.2273 11.2105 37.5118 10.7248 37.9976C10.2391 38.4833 9.95457 39.1344 9.92806 39.8208C9.90155 40.5072 10.135 41.1783 10.5818 41.7L12.5182 43.6364L10.5818 45.5727C10.0739 46.0837 9.78875 46.775 9.78875 47.4955C9.78875 48.216 10.0739 48.9072 10.5818 49.4182ZM51.8182 0H8.18182C6.01187 0 3.93079 0.86201 2.3964 2.3964C0.86201 3.93079 0 6.01187 0 8.18182V51.8182C0 53.9881 0.86201 56.0692 2.3964 57.6036C3.93079 59.138 6.01187 60 8.18182 60H51.8182C53.9881 60 56.0692 59.138 57.6036 57.6036C59.138 56.0692 60 53.9881 60 51.8182V8.18182C60 6.01187 59.138 3.93079 57.6036 2.3964C56.0692 0.86201 53.9881 0 51.8182 0ZM27.2727 54.5455H8.18182C7.4585 54.5455 6.76481 54.2581 6.25335 53.7467C5.74188 53.2352 5.45455 52.5415 5.45455 51.8182V32.7273H27.2727V54.5455ZM27.2727 27.2727H5.45455V8.18182C5.45455 7.4585 5.74188 6.76481 6.25335 6.25335C6.76481 5.74188 7.4585 5.45455 8.18182 5.45455H27.2727V27.2727ZM54.5455 51.8182C54.5455 52.5415 54.2581 53.2352 53.7467 53.7467C53.2352 54.2581 52.5415 54.5455 51.8182 54.5455H32.7273V32.7273H54.5455V51.8182ZM54.5455 27.2727H32.7273V5.45455H51.8182C52.5415 5.45455 53.2352 5.74188 53.7467 6.25335C54.2581 6.76481 54.5455 7.4585 54.5455 8.18182V27.2727ZM39.5455 42.2727H47.7273C48.4506 42.2727 49.1443 41.9854 49.6557 41.4739C50.1672 40.9625 50.4545 40.2688 50.4545 39.5455C50.4545 38.8221 50.1672 38.1284 49.6557 37.617C49.1443 37.1055 48.4506 36.8182 47.7273 36.8182H39.5455C38.8221 36.8182 38.1284 37.1055 37.617 37.617C37.1055 38.1284 36.8182 38.8221 36.8182 39.5455C36.8182 40.2688 37.1055 40.9625 37.617 41.4739C38.1284 41.9854 38.8221 42.2727 39.5455 42.2727ZM47.7273 13.6364H39.5455C38.8221 13.6364 38.1284 13.9237 37.617 14.4352C37.1055 14.9466 36.8182 15.6403 36.8182 16.3636C36.8182 17.087 37.1055 17.7806 37.617 18.2921C38.1284 18.8036 38.8221 19.0909 39.5455 19.0909H47.7273C48.4506 19.0909 49.1443 18.8036 49.6557 18.2921C50.1672 17.7806 50.4545 17.087 50.4545 16.3636C50.4545 15.6403 50.1672 14.9466 49.6557 14.4352C49.1443 13.9237 48.4506 13.6364 47.7273 13.6364ZM39.5455 50.4545H47.7273C48.4506 50.4545 49.1443 50.1672 49.6557 49.6557C50.1672 49.1443 50.4545 48.4506 50.4545 47.7273C50.4545 47.004 50.1672 46.3103 49.6557 45.7988C49.1443 45.2873 48.4506 45 47.7273 45H39.5455C38.8221 45 38.1284 45.2873 37.617 45.7988C37.1055 46.3103 36.8182 47.004 36.8182 47.7273C36.8182 48.4506 37.1055 49.1443 37.617 49.6557C38.1284 50.1672 38.8221 50.4545 39.5455 50.4545Z" fill="white"/>
</svg>
