<svg width="60" height="61" viewBox="0 0 60 61" fill="none" xmlns="http://www.w3.org/2000/svg">
<path d="M17.1193 40.865L10.2176 33.9933L38.9948 33.9933C39.7906 33.9933 40.5539 33.6771 41.1166 33.1144C41.6794 32.5516 41.9955 31.7884 41.9955 30.9925C41.9955 30.1967 41.6794 29.4334 41.1166 28.8707C40.5539 28.3079 39.7906 27.9918 38.9948 27.9918L10.2176 27.9918L17.1193 21.1201C17.4006 20.8411 17.6238 20.5092 17.7761 20.1435C17.9285 19.7779 18.0069 19.3857 18.0069 18.9895C18.0069 18.5934 17.9285 18.2012 17.7761 17.8355C17.6238 17.4698 17.4006 17.138 17.1193 16.859C16.8403 16.5777 16.5085 16.3545 16.1428 16.2022C15.7771 16.0498 15.3849 15.9714 14.9888 15.9714C14.5926 15.9714 14.2004 16.0498 13.8348 16.2022C13.4691 16.3545 13.1372 16.5777 12.8582 16.859L0.855252 28.862C0.582063 29.1474 0.367914 29.4839 0.225095 29.8522C-0.0750335 30.5828 -0.0750335 31.4022 0.225095 32.1328C0.367914 32.5011 0.582063 32.8377 0.855253 33.1231L12.8582 45.126C13.138 45.4058 13.4702 45.6278 13.8357 45.7792C14.2013 45.9306 14.5931 46.0085 14.9888 46.0085C15.3845 46.0085 15.7763 45.9306 16.1418 45.7792C16.5074 45.6278 16.8395 45.4058 17.1193 45.126C17.3991 44.8463 17.621 44.5141 17.7724 44.1485C17.9239 43.783 18.0018 43.3912 18.0018 42.9955C18.0018 42.5998 17.9239 42.208 17.7724 41.8425C17.621 41.4769 17.3991 41.1448 17.1193 40.865ZM29.9925 3.98579C29.9925 4.78163 30.3087 5.54489 30.8714 6.10764C31.4342 6.67039 32.1974 6.98654 32.9933 6.98654L50.9978 6.98654C51.7936 6.98654 52.5569 7.30268 53.1196 7.86543C53.6824 8.42818 53.9985 9.19143 53.9985 9.98728L53.9985 51.9978C53.9985 52.7936 53.6824 53.5569 53.1196 54.1196C52.5569 54.6824 51.7936 54.9985 50.9978 54.9985L32.9933 54.9985C32.1974 54.9985 31.4342 55.3147 30.8714 55.8774C30.3087 56.4402 29.9925 57.2034 29.9925 57.9993C29.9925 58.7951 30.3087 59.5584 30.8714 60.1211C31.4342 60.6838 32.1974 61 32.9933 61L50.9978 61C53.3853 61 55.6751 60.0515 57.3633 58.3633C59.0516 56.6751 60 54.3853 60 51.9978L60 9.98728C60 7.59974 59.0515 5.30998 57.3633 3.62173C55.6751 1.93348 53.3853 0.985036 50.9978 0.985037L32.9933 0.985037C32.1974 0.985037 31.4342 1.30118 30.8714 1.86394C30.3087 2.42668 29.9925 3.18994 29.9925 3.98579Z" fill="#363E3F"/>
</svg>
