<svg width="25" height="24" viewBox="0 0 25 24" fill="none" xmlns="http://www.w3.org/2000/svg">
<path d="M5.24139 0C2.81381 0 0.859131 1.95468 0.859131 4.38226V19.6178C0.859131 22.0453 2.81381 24 5.24139 24H13.4989V14.6175H11.0179V11.2395H13.4989V8.35351C13.4989 6.08611 14.9648 4.00426 18.3416 4.00426C19.7089 4.00426 20.7199 4.13551 20.7199 4.13551L20.6404 7.29002C20.6404 7.29002 19.6093 7.28028 18.4841 7.28028C17.2664 7.28028 17.0711 7.84135 17.0711 8.77279V11.2395H20.7371L20.5774 14.6175H17.0711V24H20.4769C22.9045 24 24.8591 22.0454 24.8591 19.6178V4.38228C24.8591 1.9547 22.9045 2.4e-05 20.4769 2.4e-05H5.24136L5.24139 0Z" fill="black" fill-opacity="0.4"/>
</svg>
