<svg width="64" height="40" viewBox="0 0 64 40" fill="none" xmlns="http://www.w3.org/2000/svg">
<rect x="4.35083" width="9.12281" height="40" rx="4.5614" fill="#EDEBFD"/>
<path fill-rule="evenodd" clip-rule="evenodd" d="M5.43023 1.6149C5.8646 1.47756 6.32708 1.40349 6.80686 1.40349C9.32606 1.40349 11.3683 3.4457 11.3683 5.96489V34.0351C11.3683 36.5543 9.32606 38.5965 6.80686 38.5965C6.32706 38.5965 5.86456 38.5224 5.43018 38.385C6.26689 39.3729 7.5164 40 8.91238 40C11.4316 40 13.4738 37.9578 13.4738 35.4386V4.5614C13.4738 2.04221 11.4316 0 8.91238 0C7.51643 0 6.26694 0.627072 5.43023 1.6149Z" fill="#D2D2FC"/>
<rect x="4.85083" y="0.5" width="8.12281" height="39" rx="4.0614" stroke="black"/>
<rect x="16.9822" width="9.12281" height="40" rx="4.5614" fill="#EDEBFD"/>
<path fill-rule="evenodd" clip-rule="evenodd" d="M18.0613 1.61512C18.4959 1.47764 18.9586 1.40349 19.4387 1.40349C21.9579 1.40349 24.0001 3.4457 24.0001 5.96489V34.0351C24.0001 36.5543 21.9579 38.5965 19.4387 38.5965C18.9586 38.5965 18.4959 38.5223 18.0613 38.3848C18.898 39.3728 20.1476 40 21.5437 40C24.0629 40 26.1051 37.9578 26.1051 35.4386V4.5614C26.1051 2.04221 24.0629 0 21.5437 0C20.1476 0 18.898 0.627165 18.0613 1.61512Z" fill="#D2D2FC"/>
<rect x="17.4822" y="0.5" width="8.12281" height="39" rx="4.0614" stroke="black"/>
<rect x="12.7717" y="6.21127" width="4.91228" height="7.01754" rx="2.45614" fill="#EDEBFD"/>
<path fill-rule="evenodd" clip-rule="evenodd" d="M14.1528 6.45823C15.482 6.48963 16.5498 7.57695 16.5498 8.91367V10.5265C16.5498 11.8632 15.4821 12.9505 14.1529 12.9819C14.4775 13.1401 14.8421 13.2288 15.2275 13.2288C16.584 13.2288 17.6836 12.1292 17.6836 10.7727V8.66741C17.6836 7.31092 16.584 6.21127 15.2275 6.21127C14.8421 6.21127 14.4774 6.30003 14.1528 6.45823Z" fill="#D2D2FC"/>
<rect x="13.2717" y="6.71127" width="3.91228" height="6.01754" rx="1.95614" stroke="black"/>
<rect x="12.7717" y="27.3684" width="4.91228" height="7.01754" rx="2.45614" fill="#EDEBFD"/>
<path fill-rule="evenodd" clip-rule="evenodd" d="M14.1528 27.6154C15.482 27.6468 16.5498 28.7341 16.5498 30.0708V31.6836C16.5498 33.0203 15.4821 34.1076 14.1529 34.139C14.4775 34.2972 14.8421 34.386 15.2275 34.386C16.584 34.386 17.6836 33.2863 17.6836 31.9298V29.8245C17.6836 28.4681 16.584 27.3684 15.2275 27.3684C14.8421 27.3684 14.4774 27.4572 14.1528 27.6154Z" fill="#D2D2FC"/>
<rect x="13.2717" y="27.8684" width="3.91228" height="6.01754" rx="1.95614" stroke="black"/>
<rect x="29.6143" width="9.12281" height="40" rx="4.5614" fill="#EDEBFD"/>
<path fill-rule="evenodd" clip-rule="evenodd" d="M30.6927 1.61512C31.1272 1.47764 31.59 1.40349 32.07 1.40349C34.5892 1.40349 36.6314 3.4457 36.6314 5.96489V34.0351C36.6314 36.5543 34.5892 38.5965 32.07 38.5965C31.59 38.5965 31.1272 38.5223 30.6926 38.3848C31.5293 39.3728 32.7789 40 34.175 40C36.6942 40 38.7364 37.9578 38.7364 35.4386V4.5614C38.7364 2.04221 36.6942 0 34.175 0C32.779 0 31.5294 0.627165 30.6927 1.61512Z" fill="#D2D2FC"/>
<rect x="30.1143" y="0.5" width="8.12281" height="39" rx="4.0614" stroke="black"/>
<rect x="25.4038" y="6.21127" width="4.91228" height="7.01754" rx="2.45614" fill="#EDEBFD"/>
<path fill-rule="evenodd" clip-rule="evenodd" d="M26.7849 6.45822C28.1142 6.4895 29.1822 7.57687 29.1822 8.91367V10.5265C29.1822 11.8632 28.1143 12.9506 26.785 12.9819C27.1096 13.1401 27.4742 13.2288 27.8595 13.2288C29.216 13.2288 30.3157 12.1292 30.3157 10.7727V8.66741C30.3157 7.31092 29.216 6.21127 27.8595 6.21127C27.4742 6.21127 27.1095 6.30003 26.7849 6.45822Z" fill="#D2D2FC"/>
<rect x="25.9038" y="6.71127" width="3.91228" height="6.01754" rx="1.95614" stroke="black"/>
<rect x="25.4038" y="27.3684" width="4.91228" height="7.01754" rx="2.45614" fill="#EDEBFD"/>
<path fill-rule="evenodd" clip-rule="evenodd" d="M26.7849 27.6154C28.1142 27.6466 29.1822 28.734 29.1822 30.0708V31.6836C29.1822 33.0204 28.1143 34.1077 26.785 34.1391C27.1096 34.2972 27.4742 34.386 27.8595 34.386C29.216 34.386 30.3157 33.2863 30.3157 31.9298V29.8245C30.3157 28.4681 29.216 27.3684 27.8595 27.3684C27.4742 27.3684 27.1095 27.4572 26.7849 27.6154Z" fill="#D2D2FC"/>
<rect x="25.9038" y="27.8684" width="3.91228" height="6.01754" rx="1.95614" stroke="black"/>
<rect x="42.2454" width="9.12281" height="40" rx="4.5614" fill="#EDEBFD"/>
<path fill-rule="evenodd" clip-rule="evenodd" d="M43.3243 1.61512C43.7588 1.47764 44.2216 1.40349 44.7016 1.40349C47.2208 1.40349 49.263 3.4457 49.263 5.96489V34.0351C49.263 36.5543 47.2208 38.5965 44.7016 38.5965C44.2215 38.5965 43.7588 38.5223 43.3242 38.3848C44.1609 39.3728 45.4105 40 46.8066 40C49.3258 40 51.368 37.9578 51.368 35.4386V4.5614C51.368 2.04221 49.3258 0 46.8066 0C45.4106 0 44.161 0.627165 43.3243 1.61512Z" fill="#D2D2FC"/>
<rect x="42.7454" y="0.5" width="8.12281" height="39" rx="4.0614" stroke="black"/>
<rect x="38.0349" y="6.21127" width="4.91228" height="7.01754" rx="2.45614" fill="#EDEBFD"/>
<path fill-rule="evenodd" clip-rule="evenodd" d="M39.4163 6.45822C40.7457 6.48937 41.8138 7.57678 41.8138 8.91367V10.5265C41.8138 11.8633 40.7457 12.9507 39.4164 12.9819C39.7409 13.1401 40.1055 13.2288 40.4909 13.2288C41.8474 13.2288 42.947 12.1292 42.947 10.7727V8.66741C42.947 7.31092 41.8474 6.21127 40.4909 6.21127C40.1055 6.21127 39.7409 6.30003 39.4163 6.45822Z" fill="#D2D2FC"/>
<rect x="38.5349" y="6.71127" width="3.91228" height="6.01754" rx="1.95614" stroke="black"/>
<rect x="38.0349" y="27.3684" width="4.91228" height="7.01754" rx="2.45614" fill="#EDEBFD"/>
<path fill-rule="evenodd" clip-rule="evenodd" d="M39.4163 27.6154C40.7457 27.6465 41.8138 28.7339 41.8138 30.0708V31.6836C41.8138 33.0205 40.7457 34.1079 39.4164 34.1391C39.7409 34.2972 40.1055 34.386 40.4909 34.386C41.8474 34.386 42.947 33.2863 42.947 31.9298V29.8246C42.947 28.4681 41.8474 27.3684 40.4909 27.3684C40.1055 27.3684 39.7409 27.4572 39.4163 27.6154Z" fill="#D2D2FC"/>
<rect x="38.5349" y="27.8684" width="3.91228" height="6.01754" rx="1.95614" stroke="black"/>
<rect x="54.8772" width="9.12281" height="40" rx="4.5614" fill="#EDEBFD"/>
<path fill-rule="evenodd" clip-rule="evenodd" d="M55.9561 1.61512C56.3907 1.47764 56.8534 1.40349 57.3334 1.40349C59.8526 1.40349 61.8948 3.4457 61.8948 5.96489V34.0351C61.8948 36.5543 59.8526 38.5965 57.3334 38.5965C56.8534 38.5965 56.3906 38.5223 55.9561 38.3848C56.7928 39.3728 58.0424 40 59.4384 40C61.9576 40 63.9998 37.9578 63.9998 35.4386V4.5614C63.9998 2.04221 61.9576 0 59.4384 0C58.0424 0 56.7928 0.627165 55.9561 1.61512Z" fill="#D2D2FC"/>
<rect x="55.3772" y="0.5" width="8.12281" height="39" rx="4.0614" stroke="black"/>
<rect x="50.6665" y="6.21127" width="4.91228" height="7.01754" rx="2.45614" fill="#EDEBFD"/>
<path fill-rule="evenodd" clip-rule="evenodd" d="M52.0479 6.45822C53.3771 6.4895 54.4451 7.57687 54.4451 8.91367V10.5265C54.4451 11.8632 53.3772 12.9506 52.048 12.9819C52.3725 13.1401 52.7371 13.2288 53.1225 13.2288C54.479 13.2288 55.5786 12.1292 55.5786 10.7727V8.66741C55.5786 7.31092 54.479 6.21127 53.1225 6.21127C52.7371 6.21127 52.3724 6.30003 52.0479 6.45822Z" fill="#D2D2FC"/>
<rect x="51.1665" y="6.71127" width="3.91228" height="6.01754" rx="1.95614" stroke="black"/>
<rect x="0.140381" y="6.21127" width="4.91228" height="7.01754" rx="2.45614" fill="#EDEBFD"/>
<path fill-rule="evenodd" clip-rule="evenodd" d="M1.52173 6.45822C2.85112 6.48937 3.91922 7.57678 3.91922 8.91367V10.5265C3.91922 11.8633 2.85118 12.9507 1.52184 12.9819C1.8464 13.1401 2.21101 13.2288 2.59635 13.2288C3.95284 13.2288 5.05249 12.1292 5.05249 10.7727V8.66741C5.05249 7.31092 3.95284 6.21127 2.59635 6.21127C2.21097 6.21127 1.84632 6.30003 1.52173 6.45822Z" fill="#D2D2FC"/>
<rect x="0.640381" y="6.71127" width="3.91228" height="6.01754" rx="1.95614" stroke="black"/>
<rect x="50.6665" y="27.3684" width="4.91228" height="7.01754" rx="2.45614" fill="#EDEBFD"/>
<path fill-rule="evenodd" clip-rule="evenodd" d="M52.0481 27.6154C53.3774 27.6467 54.4453 28.734 54.4453 30.0708V31.6836C54.4453 33.0204 53.3774 34.1078 52.0482 34.1391C52.3728 34.2972 52.7374 34.386 53.1227 34.386C54.4792 34.386 55.5789 33.2863 55.5789 31.9298V29.8246C55.5789 28.4681 54.4792 27.3684 53.1227 27.3684C52.7373 27.3684 52.3727 27.4572 52.0481 27.6154Z" fill="#D2D2FC"/>
<rect x="51.1665" y="27.8684" width="3.91228" height="6.01754" rx="1.95614" stroke="black"/>
<rect x="0.140381" y="27.3684" width="4.91228" height="7.01754" rx="2.45614" fill="#EDEBFD"/>
<path fill-rule="evenodd" clip-rule="evenodd" d="M1.52173 27.6154C2.85112 27.6465 3.91922 28.7339 3.91922 30.0708V31.6836C3.91922 33.0205 2.85118 34.1079 1.52184 34.1391C1.8464 34.2972 2.21101 34.386 2.59635 34.386C3.95284 34.386 5.05249 33.2863 5.05249 31.9298V29.8246C5.05249 28.4681 3.95284 27.3684 2.59635 27.3684C2.21097 27.3684 1.84632 27.4572 1.52173 27.6154Z" fill="#D2D2FC"/>
<rect x="0.640381" y="27.8684" width="3.91228" height="6.01754" rx="1.95614" stroke="black"/>
</svg>
