<svg width="50" height="50" viewBox="0 0 50 50" fill="none" xmlns="http://www.w3.org/2000/svg">
<path d="M25.7812 6.25H33.2031C34.2818 6.25 35.1562 5.37559 35.1562 4.29688C35.1562 3.22129 34.2849 2.34375 33.2031 2.34375H25.7812V6.25Z" fill="#FF4949"/>
<path d="M35.1562 4.29688C35.1562 5.37598 34.2822 6.25 33.2031 6.25H29.2969C31.0419 6.25 31.8975 4.13574 30.6777 2.91602C30.3242 2.5625 29.8359 2.34375 29.2969 2.34375H33.2031C34.2812 2.34375 35.1562 3.21875 35.1562 4.29688Z" fill="#FF0000"/>
<path d="M17.1875 6.25H9.76562C8.68691 6.25 7.8125 5.37559 7.8125 4.29688C7.8125 3.22129 8.68389 2.34375 9.76562 2.34375H17.1875V6.25Z" fill="#FF4949"/>
<path d="M13.2812 2.34375H17.1875V6.25H13.2812V2.34375Z" fill="#FF0000"/>
<path d="M24.8047 7.8125H18.1641C17.6247 7.8125 17.1875 7.37529 17.1875 6.83594V1.75781C17.1875 1.21846 17.6247 0.78125 18.1641 0.78125H24.8047C25.344 0.78125 25.7812 1.21846 25.7812 1.75781V6.83594C25.7812 7.37529 25.344 7.8125 24.8047 7.8125Z" fill="#FF4949"/>
<path d="M25.7812 1.75781V6.83594C25.7812 7.375 25.3438 7.8125 24.8047 7.8125H20.8984C21.4375 7.8125 21.875 7.375 21.875 6.83594V1.75781C21.875 1.21875 21.4375 0.78125 20.8984 0.78125H24.8047C25.3438 0.78125 25.7812 1.21875 25.7812 1.75781Z" fill="#FF0000"/>
<path d="M18.75 7.8125H24.2188V12.1436H18.75V7.8125Z" fill="#FF4949"/>
<path d="M21.0938 7.8125H24.2188V12.1436H21.0938V7.8125Z" fill="#FF0000"/>
<path d="M46.875 36.7188H35.1562C33.8618 36.7188 32.8125 35.6694 32.8125 34.375C32.8125 33.0842 33.8583 32.0312 35.1562 32.0312H46.875C48.1694 32.0312 49.2188 33.0806 49.2188 34.375C49.2188 35.6658 48.1729 36.7188 46.875 36.7188Z" fill="#EDEBFD"/>
<path d="M49.2188 34.375C49.2188 35.6692 48.168 36.7188 46.875 36.7188H42.9688C43.6152 36.7188 44.2012 36.4561 44.626 36.0322C46.0949 34.5599 45.0511 32.0312 42.9688 32.0312H46.875C48.1689 32.0312 49.2188 33.0811 49.2188 34.375Z" fill="#D2D2FC"/>
<path d="M0.78125 9.375H5.07812C6.15684 9.375 7.03125 10.2494 7.03125 11.3281V30.0781C7.03125 31.1568 6.15684 32.0312 5.07812 32.0312H0.78125V9.375Z" fill="#595965"/>
<path d="M7.03125 11.3281V30.0781C7.03125 31.1572 6.15723 32.0312 5.07812 32.0312H1.17188C2.25098 32.0312 3.125 31.1572 3.125 30.0781V11.3281C3.125 10.249 2.25098 9.375 1.17188 9.375H5.07812C6.15723 9.375 7.03125 10.249 7.03125 11.3281Z" fill="#44454E"/>
<path d="M21.4844 29.6875C26.4463 29.6875 30.4688 25.6651 30.4688 20.7031C30.4688 15.7412 26.4463 11.7188 21.4844 11.7188C16.5224 11.7188 12.5 15.7412 12.5 20.7031C12.5 25.6651 16.5224 29.6875 21.4844 29.6875Z" fill="#EDEBFD"/>
<path d="M30.4688 20.7032C30.4688 26.4559 25.1362 30.7193 19.5312 29.4746C21.0869 29.1299 22.4922 28.3809 23.6289 27.3438C27.5419 23.7785 27.5389 17.6251 23.6289 14.0625C22.4922 13.0254 21.0869 12.2764 19.5312 11.9317C25.1548 10.683 30.4688 14.9722 30.4688 20.7032Z" fill="#D2D2FC"/>
<path d="M15.4336 27.3438H7.03125V14.0625H15.4336C11.5206 17.6278 11.5236 23.7812 15.4336 27.3438Z" fill="#EDEBFD"/>
<path d="M15.4336 27.3438H12.4063C8.49327 23.7784 8.4963 17.6251 12.4063 14.0625H15.4336C11.5206 17.6278 11.5236 23.7812 15.4336 27.3438Z" fill="#D2D2FC"/>
<path d="M47.6563 26.7578V32.0312H34.375V30.2734C34.375 28.6553 33.0635 27.3438 31.4453 27.3438H27.5352C31.4481 23.7784 31.4451 17.6251 27.5352 14.0625H34.9609C41.9727 14.0625 47.6563 19.7461 47.6563 26.7578Z" fill="#EDEBFD"/>
<path d="M47.6562 26.7578V32.0312H43.75V26.7578C43.75 19.7461 38.0664 14.0625 31.0547 14.0625H34.9609C41.9727 14.0625 47.6562 19.7461 47.6562 26.7578Z" fill="#D2D2FC"/>
<path d="M41.0156 39.8438C41.0156 39.8438 44.9219 42.1875 44.9219 45.3125C44.9219 47.4698 43.1729 49.2188 41.0156 49.2188C38.8583 49.2188 37.1094 47.4698 37.1094 45.3125C37.1094 42.1875 41.0156 39.8438 41.0156 39.8438Z" fill="#FF4949"/>
<path d="M44.9219 45.3125C44.9219 48.2473 41.8174 50.0972 39.2578 48.8008C41.3283 47.7568 42.8212 44.6014 39.2578 41.2158C40.165 40.3535 41.0156 39.8438 41.0156 39.8438C41.0156 39.8438 44.9219 42.1875 44.9219 45.3125Z" fill="#FF0000"/>
<path d="M48.4375 31.6704V26.7578C48.4375 19.3269 42.392 13.2812 34.9609 13.2812H27.8238C26.9914 12.5692 26.0384 11.9945 25 11.5925V8.58223C25.8134 8.4918 26.4605 7.84463 26.551 7.03125H33.2031C34.7108 7.03125 35.9375 5.80459 35.9375 4.29688C35.9375 2.78916 34.7108 1.5625 33.2031 1.5625H26.551C26.4534 0.684863 25.7078 0 24.8047 0H18.1641C17.2608 0 16.5153 0.684863 16.4178 1.5625H9.76562C8.25791 1.5625 7.03125 2.78916 7.03125 4.29688C7.03125 5.80459 8.25791 7.03125 9.76562 7.03125H16.4178C16.5082 7.84463 17.1554 8.4918 17.9688 8.58223V11.5925C16.9303 11.9945 15.9773 12.5692 15.1449 13.2812H7.8125V11.3281C7.8125 9.82041 6.58584 8.59375 5.07812 8.59375H0.78125C0.349805 8.59375 0 8.94355 0 9.375C0 9.80645 0.349805 10.1562 0.78125 10.1562H5.07812C5.72432 10.1562 6.25 10.6819 6.25 11.3281V30.0781C6.25 30.7243 5.72432 31.25 5.07812 31.25H0.78125C0.349805 31.25 0 31.5998 0 32.0312C0 32.4627 0.349805 32.8125 0.78125 32.8125H5.07812C6.58584 32.8125 7.8125 31.5858 7.8125 30.0781V28.125H15.1449C18.7991 31.2509 24.1702 31.2504 27.8238 28.125H31.4453C32.63 28.125 33.5938 29.0888 33.5938 30.2734V31.6704C32.6606 32.2116 32.0312 33.2208 32.0312 34.375C32.0312 36.0981 33.4331 37.5 35.1562 37.5H46.875C48.5981 37.5 50 36.0981 50 34.375C50 33.2209 49.3706 32.2116 48.4375 31.6704ZM34.375 4.29688C34.375 4.94307 33.8493 5.46875 33.2031 5.46875H26.5625V3.125H33.2031C33.8493 3.125 34.375 3.65068 34.375 4.29688ZM17.9688 1.75781C17.9688 1.6501 18.0563 1.5625 18.1641 1.5625H24.8047C24.9124 1.5625 25 1.6501 25 1.75781V6.83594C25 6.94365 24.9124 7.03125 24.8047 7.03125C22.8928 7.03125 20.3497 7.03125 18.1641 7.03125C18.0563 7.03125 17.9688 6.94365 17.9688 6.83594C17.9688 4.66221 17.9688 3.91572 17.9688 1.75781ZM8.59375 4.29688C8.59375 3.65068 9.11943 3.125 9.76562 3.125H16.4062V5.46875H9.76562C9.11943 5.46875 8.59375 4.94307 8.59375 4.29688ZM19.5312 8.59375H23.4375V11.1339C22.168 10.8752 20.8314 10.8689 19.5312 11.1339V8.59375ZM7.8125 14.8438H13.6769C11.0666 18.3132 11.0631 23.0885 13.6769 26.5625H7.8125V14.8438ZM13.2812 20.7031C13.2812 16.1799 16.9611 12.5 21.4844 12.5C26.0075 12.5 29.6875 16.1799 29.6875 20.7031C29.6875 25.2264 26.0075 28.9062 21.4844 28.9062C16.9611 28.9062 13.2812 25.2264 13.2812 20.7031ZM31.4453 26.5625H29.2919C31.9022 23.0929 31.9055 18.3176 29.2919 14.8438H34.9609C41.5304 14.8438 46.875 20.1884 46.875 26.7578V31.25H35.1562V30.2734C35.1562 28.2272 33.4915 26.5625 31.4453 26.5625ZM46.875 35.9375H35.1562C34.2947 35.9375 33.5938 35.2365 33.5938 34.375C33.5938 33.5135 34.2947 32.8125 35.1562 32.8125H46.875C47.7365 32.8125 48.4375 33.5135 48.4375 34.375C48.4375 35.2365 47.7365 35.9375 46.875 35.9375Z" fill="black"/>
<path d="M41.4176 39.1739C41.1702 39.0254 40.861 39.0254 40.6137 39.1739C40.4387 39.2789 36.3281 41.7858 36.3281 45.3126C36.3281 47.8972 38.431 50.0001 41.0156 50.0001C43.6003 50.0001 45.7031 47.8972 45.7031 45.3126C45.7031 41.7858 41.5926 39.2789 41.4176 39.1739ZM41.0156 48.4376C39.2925 48.4376 37.8906 47.0357 37.8906 45.3126C37.8906 43.2177 40.0898 41.4388 41.0156 40.7829C41.9414 41.4388 44.1406 43.2177 44.1406 45.3126C44.1406 47.0357 42.7388 48.4376 41.0156 48.4376Z" fill="black"/>
</svg>
