<svg width="60" height="47" viewBox="0 0 60 47" fill="none" xmlns="http://www.w3.org/2000/svg">
<path d="M30 0C24.7338 0.00013378 19.5605 1.38645 14.9999 4.01963C10.4393 6.6528 6.65218 10.44 4.01915 15.0007C1.38612 19.5614 -3.34458e-05 24.7348 6.05253e-10 30.001C3.3447e-05 35.2671 1.38625 40.4405 4.01934 45.0011C4.41717 45.6934 5.0737 46.1992 5.8445 46.4074C6.61529 46.6156 7.43721 46.509 8.12944 46.1112C8.82168 45.7133 9.32752 45.0568 9.53569 44.286C9.74386 43.5152 9.63731 42.6933 9.23947 42.0011C7.11374 38.3593 5.99545 34.2175 5.99939 30.0008C6.00082 26.3202 6.84872 22.6893 8.47753 19.3888C10.1063 16.0883 12.4724 13.2066 15.3928 10.9665C18.3131 8.72647 21.7096 7.18808 25.3195 6.47031C28.9293 5.75254 32.6559 5.87462 36.2111 6.82711C39.7663 7.7796 43.0548 9.53698 45.8223 11.9634C48.5898 14.3897 50.7622 17.4201 52.1715 20.8202C53.5808 24.2202 54.1892 27.8988 53.9498 31.5716C53.7103 35.2443 52.6294 38.8128 50.7905 42.0011C50.5922 42.3435 50.4635 42.7217 50.412 43.1141C50.3604 43.5064 50.387 43.9051 50.4902 44.2871C50.5933 44.6692 50.7711 45.027 51.0131 45.3401C51.2552 45.6531 51.5568 45.9152 51.9006 46.1112C52.5894 46.5023 53.405 46.6051 54.1694 46.3971C54.9338 46.1892 55.5849 45.6874 55.9807 45.0011C58.6137 40.4405 60 35.2671 60 30.001C60 24.7348 58.6139 19.5614 55.9808 15.0007C53.3478 10.44 49.5607 6.6528 45.0001 4.01963C40.4395 1.38645 35.2662 0.00013378 30 0ZM38.5202 17.2804L33.8701 21.9006C32.6664 21.3071 31.3421 20.9991 30 21.0005C28.2199 21.0005 26.4798 21.5284 24.9997 22.5173C23.5197 23.5063 22.3661 24.9119 21.6849 26.5565C21.0037 28.2011 20.8254 30.0107 21.1727 31.7566C21.52 33.5025 22.3772 35.1062 23.6359 36.3649C24.8946 37.6236 26.4983 38.4808 28.2441 38.8281C29.99 39.1753 31.7997 38.9971 33.4442 38.3159C35.0888 37.6347 36.4945 36.4811 37.4834 35.001C38.4724 33.5209 39.0002 31.7808 39.0002 30.0008C38.9981 28.6687 38.6902 27.3549 38.1002 26.1607L42.7503 21.5405C43.0315 21.2617 43.2547 20.9298 43.407 20.5643C43.5593 20.1987 43.6377 19.8065 43.6377 19.4105C43.6377 19.0144 43.5593 18.6223 43.407 18.2567C43.2547 17.8911 43.0315 17.5593 42.7503 17.2804C42.1882 16.7217 41.4278 16.408 40.6353 16.408C39.8427 16.408 39.0823 16.7217 38.5202 17.2804ZM30 33.0008C29.2043 33.0008 28.4412 32.6848 27.8786 32.1221C27.316 31.5595 26.9999 30.7964 26.9999 30.0008C26.9999 29.2051 27.316 28.442 27.8786 27.8794C28.4412 27.3168 29.2043 27.0007 30 27.0007C30.7828 26.996 31.5364 27.2974 32.1001 27.8407C32.3871 28.1221 32.6147 28.4583 32.7694 28.8294C32.924 29.2004 33.0024 29.5988 33.0001 30.0008C33.0001 30.7964 32.684 31.5595 32.1214 32.1221C31.5588 32.6848 30.7957 33.0008 30 33.0008Z" fill="white"/>
</svg>
