<svg width="223" height="59" viewBox="0 0 223 59" fill="none" xmlns="http://www.w3.org/2000/svg">
<path d="M67 48.0232C67 47.8966 67.0416 47.77 67.0833 47.6856C67.1665 47.6434 67.2914 47.6012 67.4163 47.6012H69.4559C69.7057 47.6012 69.9555 47.6434 70.2052 47.7278C70.4133 47.8122 70.6215 47.9388 70.788 48.1076C70.9545 48.2341 71.0794 48.4451 71.1626 48.6561C71.2459 48.9092 71.3291 49.1202 71.3291 49.4156C71.3291 49.5843 71.2875 49.7531 71.2459 49.9641C71.1626 50.1751 71.0794 50.386 70.9545 50.597C70.788 50.7658 70.6215 50.9345 70.3717 51.0611C70.122 51.2299 69.789 51.2721 69.3727 51.2721H67.7909V53.5927C67.7909 53.6771 67.7493 53.6771 67.7493 53.7193C67.7076 53.7193 67.666 53.7615 67.6244 53.7615H67.1665C67.1249 53.7615 67.0833 53.7193 67.0416 53.7193C67 53.6771 67 53.6771 67 53.5927V48.0232ZM70.4966 49.4578C70.4966 49.3312 70.455 49.2046 70.4133 49.078C70.4133 48.9514 70.3301 48.8249 70.2468 48.6983C70.1636 48.6139 69.9971 48.5295 69.8722 48.4451C69.7057 48.3607 69.4976 48.3185 69.2478 48.3185H67.7909V50.5548H69.2478C69.6641 50.5548 69.9971 50.4704 70.2052 50.2594C70.3717 50.0907 70.4966 49.7953 70.4966 49.4578ZM75.908 53.7615C75.8664 53.7615 75.8248 53.7193 75.7831 53.7193C75.7415 53.7193 75.7415 53.6771 75.6999 53.5927L75.2836 52.3269H72.8277L72.4114 53.5927C72.3698 53.6771 72.2865 53.7615 72.2033 53.7615H71.6205C71.5789 53.7615 71.5373 53.7193 71.5373 53.6771C71.4956 53.6771 71.4956 53.6349 71.4956 53.5927L73.4521 47.9388C73.4937 47.8122 73.5769 47.6856 73.6186 47.6434C73.7018 47.6012 73.7851 47.6012 73.9099 47.6012H74.1597C74.3262 47.6012 74.4095 47.6012 74.4927 47.6856C74.5343 47.7278 74.576 47.8122 74.6176 47.9388L76.574 53.5927C76.6156 53.6349 76.6156 53.6349 76.574 53.6771C76.574 53.7193 76.5324 53.7615 76.4908 53.7615H75.908ZM74.4511 49.7953L74.0765 48.4873H73.9932L73.6186 49.7531L73.0358 51.6096H75.0339L74.4511 49.7953ZM80.1539 53.0864C80.4036 53.0864 80.6118 53.0442 80.8615 53.002C81.1113 52.9176 81.3194 52.8754 81.5275 52.7489C81.5692 52.7489 81.6108 52.7489 81.6524 52.7489C81.694 52.7911 81.694 52.7911 81.694 52.8333L81.8605 53.213C81.9022 53.2974 81.9022 53.3396 81.9022 53.3396C81.9022 53.3818 81.8605 53.424 81.8189 53.424C81.694 53.5084 81.5275 53.5927 81.4027 53.6349C81.2362 53.6771 81.0696 53.7193 80.9031 53.7615C80.7366 53.8037 80.6118 53.8037 80.4453 53.8037C80.2788 53.8459 80.1539 53.8459 79.9874 53.8459C79.6127 53.8459 79.2381 53.7615 78.9051 53.6349C78.5721 53.5505 78.3223 53.3396 78.1142 53.0864C77.8644 52.8333 77.6979 52.5379 77.6147 52.1582C77.4898 51.7362 77.4065 51.2721 77.4065 50.7658C77.4065 50.2594 77.4898 49.8375 77.6147 49.4156C77.7396 49.0358 77.9061 48.6983 78.1558 48.4029C78.3639 48.1076 78.6553 47.8966 78.9883 47.7278C79.3213 47.6012 79.6544 47.5168 80.0706 47.5168C80.3204 47.5168 80.5701 47.5168 80.8199 47.6012C81.1113 47.6434 81.361 47.7278 81.6524 47.8544C81.694 47.8966 81.7357 47.8966 81.7357 47.9388C81.7357 47.981 81.7357 48.0232 81.694 48.0654L81.5275 48.4873C81.4859 48.5295 81.4859 48.5295 81.4443 48.5717C81.4443 48.5717 81.4027 48.5717 81.361 48.5295C80.9448 48.3607 80.5285 48.2763 80.0706 48.2763C79.7792 48.2763 79.4879 48.3607 79.2381 48.4873C79.03 48.6139 78.8218 48.8249 78.6553 49.0358C78.5305 49.289 78.4056 49.5421 78.3223 49.8375C78.2807 50.1329 78.2391 50.4282 78.2391 50.7658C78.2391 51.0611 78.2807 51.3987 78.3223 51.6518C78.3639 51.9472 78.4888 52.2003 78.6137 52.4113C78.7802 52.6223 78.9883 52.7911 79.2381 52.9176C79.4462 53.002 79.7792 53.0864 80.1539 53.0864ZM82.6514 47.7278C82.6514 47.6856 82.6931 47.6434 82.6931 47.6012C82.7347 47.6012 82.7347 47.6012 82.8179 47.6012H83.3175C83.3591 47.6012 83.4007 47.6012 83.4007 47.6012C83.4423 47.6434 83.4423 47.6856 83.4423 47.7278V49.289C83.4423 49.7953 83.6088 50.1751 83.8586 50.386C84.15 50.597 84.6079 50.7236 85.2323 50.7236C85.3988 50.7236 85.5653 50.7236 85.7734 50.6814C85.9815 50.6814 86.148 50.6392 86.3145 50.597V47.7278C86.3145 47.6856 86.3145 47.6434 86.3562 47.6012C86.3562 47.6012 86.3978 47.6012 86.4811 47.6012H86.9806C87.0222 47.6012 87.0638 47.6012 87.0638 47.6012C87.1054 47.6434 87.1054 47.6856 87.1054 47.7278V53.5927C87.1054 53.6771 87.1054 53.7193 87.0638 53.7193C87.0638 53.7193 87.0222 53.7615 86.9806 53.7615H86.4811C86.3978 53.7615 86.3562 53.7193 86.3562 53.7193C86.3145 53.7193 86.3145 53.6771 86.3145 53.5927V51.3143C86.148 51.3565 85.9815 51.3565 85.7734 51.3987C85.5653 51.3987 85.3571 51.3987 85.1906 51.3987C84.3581 51.3987 83.7337 51.2299 83.3175 50.9345C82.8596 50.597 82.6514 50.0907 82.6514 49.3734V47.7278ZM92.6417 53.5505C92.6417 53.6349 92.6417 53.6771 92.6417 53.6771C92.6001 53.7193 92.5585 53.7615 92.4752 53.7615H90.1025C89.8111 53.7615 89.5614 53.7193 89.3949 53.6349C89.1868 53.5505 89.0619 53.424 88.937 53.2974C88.8121 53.1708 88.7289 53.002 88.6872 52.8333C88.6456 52.6223 88.604 52.4535 88.604 52.2425V49.1202C88.604 48.9092 88.6456 48.6983 88.6872 48.5295C88.7705 48.3607 88.8537 48.1919 88.937 48.0654C89.0619 47.8966 89.2284 47.8122 89.3949 47.7278C89.603 47.6434 89.8111 47.6012 90.1025 47.6012H92.4336C92.5168 47.6012 92.5585 47.6012 92.5585 47.6434C92.6001 47.6856 92.6001 47.7278 92.6001 47.77V48.1498C92.6001 48.1919 92.6001 48.2763 92.5585 48.2763C92.5585 48.3185 92.5168 48.3185 92.4336 48.3185H90.1025C89.8528 48.3185 89.6863 48.3607 89.5614 48.4873C89.4781 48.6139 89.3949 48.7405 89.3949 48.9936V50.1329H92.1422C92.2255 50.1329 92.2671 50.1329 92.2671 50.1751C92.3087 50.2172 92.3087 50.2594 92.3087 50.3016V50.6392C92.3087 50.7236 92.3087 50.7658 92.2671 50.7658C92.2671 50.808 92.2255 50.808 92.1422 50.808H89.3949V52.3269C89.3949 52.5379 89.4781 52.7067 89.5614 52.8333C89.6863 52.9598 89.8528 53.002 90.1025 53.002H92.4752C92.5585 53.002 92.6001 53.002 92.6417 53.0442C92.6417 53.0864 92.6417 53.1286 92.6417 53.1708V53.5505ZM95.1393 48.3185H93.4743C93.391 48.3185 93.3494 48.3185 93.3494 48.2763C93.3494 48.2763 93.3494 48.2341 93.3494 48.1919V47.7278C93.3494 47.6856 93.3494 47.6434 93.3494 47.6434C93.3494 47.6012 93.391 47.6012 93.4743 47.6012H97.6785C97.7617 47.6012 97.7617 47.6012 97.8034 47.6434C97.8034 47.6434 97.8034 47.6856 97.8034 47.7278V48.1919C97.8034 48.2341 97.8034 48.2763 97.8034 48.2763C97.7617 48.3185 97.7617 48.3185 97.6785 48.3185H95.9718V53.5927C95.9718 53.6771 95.9302 53.6771 95.9302 53.7193C95.8886 53.7193 95.8469 53.7615 95.8053 53.7615H95.3058C95.2642 53.7615 95.2226 53.7193 95.1809 53.7193C95.1393 53.6771 95.1393 53.6771 95.1393 53.5927V48.3185ZM102.674 47.77C102.674 47.6856 102.674 47.6434 102.715 47.6434C102.715 47.6012 102.757 47.6012 102.84 47.6012H103.298C103.34 47.6012 103.381 47.6012 103.423 47.6434C103.465 47.6434 103.465 47.6856 103.465 47.77V53.5927C103.465 53.6771 103.465 53.6771 103.423 53.7193C103.381 53.7193 103.34 53.7615 103.298 53.7615H102.84C102.757 53.7615 102.715 53.7193 102.715 53.7193C102.674 53.6771 102.674 53.6771 102.674 53.5927V50.8501H99.5933V53.5927C99.5933 53.6771 99.5933 53.6771 99.5933 53.7193C99.5517 53.7193 99.51 53.7615 99.4268 53.7615H98.9689C98.9273 53.7615 98.8857 53.7193 98.844 53.7193C98.8024 53.6771 98.8024 53.6771 98.8024 53.5927V47.77C98.8024 47.6856 98.8024 47.6434 98.844 47.6434C98.8857 47.6012 98.9273 47.6012 98.9689 47.6012H99.4268C99.51 47.6012 99.5517 47.6012 99.5933 47.6434C99.5933 47.6434 99.5933 47.6856 99.5933 47.77V50.1751H102.674V47.77ZM109.958 50.6392C109.958 51.694 109.75 52.4535 109.292 53.002C108.876 53.5505 108.21 53.8459 107.377 53.8459C106.503 53.8459 105.879 53.5505 105.421 53.002C105.005 52.4957 104.797 51.694 104.797 50.6814C104.797 50.1751 104.88 49.7109 105.005 49.3312C105.13 48.9514 105.296 48.6139 105.546 48.3185C105.754 48.0654 106.045 47.8544 106.337 47.7278C106.67 47.559 107.003 47.5168 107.377 47.5168C107.794 47.5168 108.168 47.559 108.501 47.7278C108.834 47.8544 109.084 48.0654 109.292 48.3607C109.5 48.6139 109.667 48.9514 109.792 49.3312C109.917 49.7109 109.958 50.1751 109.958 50.6392ZM109.126 50.6814C109.126 50.3438 109.126 50.0485 109.084 49.7531C109.001 49.4578 108.918 49.2046 108.793 48.9514C108.668 48.7405 108.501 48.5717 108.252 48.4451C108.043 48.2763 107.752 48.2341 107.419 48.2341C107.086 48.2341 106.836 48.2763 106.586 48.4029C106.378 48.5295 106.17 48.7405 106.045 48.9514C105.879 49.1624 105.796 49.4156 105.712 49.7109C105.629 50.0063 105.587 50.3016 105.587 50.6392C105.587 51.0189 105.629 51.3565 105.671 51.6518C105.754 51.9472 105.837 52.2003 105.962 52.4113C106.129 52.6223 106.295 52.8333 106.503 52.9176C106.753 53.0442 107.044 53.1286 107.377 53.1286C107.71 53.1286 108.002 53.0442 108.21 52.9176C108.418 52.7911 108.626 52.6223 108.751 52.3691C108.918 52.1582 109.001 51.905 109.042 51.6096C109.126 51.3143 109.126 50.9767 109.126 50.6814ZM111.207 51.6518C111.165 51.6518 111.124 51.6518 111.124 51.6518C111.082 51.6096 111.082 51.5674 111.082 51.5252V50.9345C111.082 50.8923 111.082 50.8501 111.124 50.8501C111.124 50.808 111.165 50.808 111.207 50.808H113.205C113.288 50.808 113.288 50.808 113.33 50.8501C113.33 50.8501 113.33 50.8923 113.33 50.9345V51.5252C113.33 51.5674 113.33 51.6096 113.33 51.6518C113.288 51.6518 113.288 51.6518 113.205 51.6518H111.207ZM117.659 50.4704C117.784 50.5126 117.909 50.5548 118.034 50.6392C118.117 50.6814 118.2 50.7658 118.283 50.8923C118.325 50.9767 118.367 51.0611 118.408 51.1877C118.45 51.2721 118.492 51.3987 118.533 51.5674L119.074 53.5927C119.074 53.5927 119.074 53.6349 119.074 53.6771C119.074 53.7193 119.033 53.7615 118.949 53.7615H118.45C118.408 53.7615 118.367 53.7193 118.325 53.7193C118.325 53.7193 118.283 53.6771 118.283 53.6349L117.742 51.6518C117.701 51.4831 117.659 51.3565 117.576 51.2721C117.534 51.1455 117.451 51.0611 117.368 50.9767C117.284 50.9345 117.16 50.8923 117.035 50.8501C116.951 50.8501 116.785 50.8501 116.66 50.8501H115.411V53.5927C115.411 53.6771 115.411 53.7193 115.411 53.7193C115.37 53.7193 115.328 53.7615 115.286 53.7615H114.787C114.745 53.7615 114.704 53.7193 114.662 53.7193C114.662 53.7193 114.662 53.6771 114.662 53.5927V47.7278C114.662 47.6856 114.662 47.6434 114.662 47.6434C114.704 47.6012 114.745 47.6012 114.787 47.6012H115.286C115.328 47.6012 115.37 47.6012 115.411 47.6434C115.411 47.6434 115.411 47.6856 115.411 47.7278V50.0907H116.577C116.66 50.0907 116.743 50.0907 116.868 50.0907C116.951 50.0485 117.076 50.0063 117.16 49.9641C117.243 49.8797 117.368 49.7953 117.409 49.6687C117.493 49.5843 117.576 49.4156 117.617 49.2046L118.034 47.6856C118.034 47.6434 118.034 47.6012 118.075 47.6012C118.117 47.6012 118.159 47.6012 118.159 47.6012H118.658C118.7 47.6012 118.741 47.6012 118.783 47.6434C118.783 47.6856 118.783 47.7278 118.741 47.77L118.367 49.3312C118.325 49.5843 118.242 49.7953 118.117 49.9641C117.992 50.1751 117.826 50.3016 117.659 50.4282V50.4704ZM124.069 53.7615C124.028 53.7615 123.986 53.7193 123.945 53.7193C123.903 53.7193 123.903 53.6771 123.861 53.5927L123.445 52.3269H120.989L120.573 53.5927C120.531 53.6771 120.448 53.7615 120.365 53.7615H119.782C119.74 53.7615 119.699 53.7193 119.699 53.6771C119.657 53.6771 119.657 53.6349 119.657 53.5927L121.614 47.9388C121.655 47.8122 121.738 47.6856 121.78 47.6434C121.822 47.6012 121.947 47.6012 122.071 47.6012H122.321C122.488 47.6012 122.571 47.6012 122.654 47.6856C122.696 47.7278 122.737 47.8122 122.779 47.9388L124.736 53.5927C124.777 53.6349 124.777 53.6349 124.736 53.6771C124.736 53.7193 124.694 53.7615 124.652 53.7615H124.069ZM122.613 49.7953L122.238 48.4873H122.155L121.78 49.7531L121.197 51.6096H123.195L122.613 49.7953ZM128.315 53.0864C128.565 53.0864 128.773 53.0442 129.023 53.002C129.273 52.9176 129.481 52.8754 129.689 52.7489C129.731 52.7489 129.772 52.7489 129.814 52.7489C129.856 52.7911 129.856 52.7911 129.856 52.8333L130.022 53.213C130.064 53.2974 130.064 53.3396 130.064 53.3396C130.064 53.3818 130.022 53.424 129.98 53.424C129.856 53.5084 129.689 53.5927 129.564 53.6349C129.398 53.6771 129.231 53.7193 129.065 53.7615C128.898 53.8037 128.773 53.8037 128.607 53.8037C128.44 53.8459 128.315 53.8459 128.149 53.8459C127.733 53.8459 127.4 53.7615 127.067 53.6349C126.734 53.5505 126.484 53.3396 126.276 53.0864C126.026 52.8333 125.859 52.5379 125.776 52.1582C125.651 51.7362 125.568 51.2721 125.568 50.7658C125.568 50.2594 125.651 49.8375 125.776 49.4156C125.901 49.0358 126.068 48.6983 126.317 48.4029C126.525 48.1076 126.817 47.8966 127.15 47.7278C127.483 47.6012 127.816 47.5168 128.232 47.5168C128.482 47.5168 128.732 47.5168 128.981 47.6012C129.273 47.6434 129.523 47.7278 129.814 47.8544C129.856 47.8966 129.897 47.8966 129.897 47.9388C129.897 47.981 129.897 48.0232 129.856 48.0654L129.689 48.4873C129.647 48.5295 129.647 48.5295 129.606 48.5717C129.606 48.5717 129.564 48.5717 129.523 48.5295C129.106 48.3607 128.69 48.2763 128.232 48.2763C127.941 48.2763 127.649 48.3607 127.4 48.4873C127.191 48.6139 126.983 48.8249 126.817 49.0358C126.692 49.289 126.567 49.5421 126.484 49.8375C126.442 50.1329 126.401 50.4282 126.401 50.7658C126.401 51.0611 126.442 51.3987 126.484 51.6518C126.525 51.9472 126.65 52.2003 126.775 52.4113C126.942 52.6223 127.15 52.7911 127.4 52.9176C127.608 53.002 127.941 53.0864 128.315 53.0864ZM133.685 53.0864C133.935 53.0864 134.185 53.0442 134.434 53.002C134.643 52.9176 134.851 52.8754 135.059 52.7489C135.142 52.7489 135.184 52.7489 135.184 52.7489C135.225 52.7911 135.267 52.7911 135.267 52.8333L135.433 53.213C135.475 53.2974 135.475 53.3396 135.475 53.3396C135.433 53.3818 135.433 53.424 135.392 53.424C135.267 53.5084 135.1 53.5927 134.934 53.6349C134.767 53.6771 134.643 53.7193 134.476 53.7615C134.31 53.8037 134.143 53.8037 133.977 53.8037C133.852 53.8459 133.685 53.8459 133.56 53.8459C133.144 53.8459 132.769 53.7615 132.478 53.6349C132.145 53.5505 131.895 53.3396 131.645 53.0864C131.437 52.8333 131.271 52.5379 131.146 52.1582C131.021 51.7362 130.979 51.2721 130.979 50.7658C130.979 50.2594 131.021 49.8375 131.146 49.4156C131.271 49.0358 131.479 48.6983 131.687 48.4029C131.937 48.1076 132.228 47.8966 132.52 47.7278C132.853 47.6012 133.227 47.5168 133.602 47.5168C133.852 47.5168 134.101 47.5168 134.393 47.6012C134.643 47.6434 134.934 47.7278 135.225 47.8544C135.267 47.8966 135.267 47.8966 135.309 47.9388C135.309 47.981 135.309 48.0232 135.267 48.0654L135.059 48.4873C135.059 48.5295 135.017 48.5295 135.017 48.5717C134.976 48.5717 134.976 48.5717 134.892 48.5295C134.518 48.3607 134.101 48.2763 133.644 48.2763C133.311 48.2763 133.019 48.3607 132.811 48.4873C132.561 48.6139 132.395 48.8249 132.228 49.0358C132.062 49.289 131.978 49.5421 131.895 49.8375C131.812 50.1329 131.77 50.4282 131.77 50.7658C131.77 51.0611 131.812 51.3987 131.895 51.6518C131.937 51.9472 132.062 52.2003 132.187 52.4113C132.353 52.6223 132.52 52.7911 132.769 52.9176C133.019 53.002 133.311 53.0864 133.685 53.0864ZM141.511 50.6392C141.511 51.694 141.303 52.4535 140.845 53.002C140.429 53.5505 139.763 53.8459 138.93 53.8459C138.056 53.8459 137.431 53.5505 137.015 53.002C136.599 52.4957 136.349 51.694 136.349 50.6814C136.349 50.1751 136.432 49.7109 136.557 49.3312C136.682 48.9514 136.89 48.6139 137.098 48.3185C137.307 48.0654 137.598 47.8544 137.931 47.7278C138.222 47.559 138.555 47.5168 138.93 47.5168C139.346 47.5168 139.721 47.559 140.054 47.7278C140.387 47.8544 140.637 48.0654 140.845 48.3607C141.095 48.6139 141.261 48.9514 141.344 49.3312C141.469 49.7109 141.511 50.1751 141.511 50.6392ZM140.72 50.6814C140.72 50.3438 140.678 50.0485 140.637 49.7531C140.595 49.4578 140.47 49.2046 140.345 48.9514C140.22 48.7405 140.054 48.5717 139.846 48.4451C139.596 48.2763 139.305 48.2341 138.972 48.2341C138.639 48.2341 138.389 48.2763 138.139 48.4029C137.931 48.5295 137.765 48.7405 137.598 48.9514C137.473 49.1624 137.348 49.4156 137.265 49.7109C137.182 50.0063 137.182 50.3016 137.182 50.6392C137.182 51.0189 137.182 51.3565 137.265 51.6518C137.307 51.9472 137.39 52.2003 137.556 52.4113C137.681 52.6223 137.848 52.8333 138.098 52.9176C138.306 53.0442 138.597 53.1286 138.93 53.1286C139.263 53.1286 139.554 53.0442 139.763 52.9176C140.012 52.7911 140.179 52.6223 140.304 52.3691C140.47 52.1582 140.553 51.905 140.595 51.6096C140.678 51.3143 140.72 50.9767 140.72 50.6814ZM146.506 51.8628C146.506 51.5252 146.381 51.2721 146.173 51.0611C145.965 50.8501 145.673 50.7236 145.257 50.7236H143.675V53.002H145.257C145.507 53.002 145.715 52.9598 145.882 52.8754C146.048 52.8333 146.173 52.7067 146.256 52.6223C146.34 52.4957 146.423 52.3691 146.464 52.2425C146.506 52.116 146.506 51.9894 146.506 51.8628ZM143.675 50.0485H145.257C145.34 50.0485 145.424 50.0485 145.549 50.0485C145.673 50.0063 145.798 49.9641 145.882 49.8797C145.965 49.8375 146.048 49.7109 146.131 49.6265C146.215 49.5 146.215 49.3312 146.215 49.1624C146.215 48.9092 146.173 48.6983 146.006 48.5295C145.84 48.4029 145.59 48.3185 145.299 48.3185H143.675V50.0485ZM146.34 50.386C146.506 50.4282 146.673 50.5126 146.797 50.6392C146.922 50.7236 147.006 50.8501 147.089 51.0189C147.172 51.1455 147.214 51.2721 147.255 51.4409C147.297 51.6096 147.297 51.7784 147.297 51.905C147.297 52.2003 147.255 52.4535 147.172 52.6645C147.047 52.8754 146.922 53.0864 146.756 53.2552C146.589 53.3818 146.381 53.5084 146.131 53.5927C145.882 53.6771 145.632 53.7615 145.34 53.7615H143.301C143.134 53.7615 143.051 53.7193 142.968 53.6349C142.885 53.5505 142.843 53.4662 142.843 53.2974V48.0232C142.843 47.8966 142.885 47.77 142.968 47.6856C143.009 47.6434 143.134 47.6012 143.301 47.6012H145.216C145.507 47.6012 145.757 47.6012 145.965 47.6856C146.173 47.7278 146.381 47.8122 146.548 47.9388C146.714 48.0654 146.839 48.2341 146.922 48.4029C147.006 48.6139 147.047 48.8249 147.047 49.078C147.047 49.3734 147.006 49.5843 146.839 49.8375C146.714 50.0485 146.548 50.2172 146.34 50.3016V50.386ZM149.087 53.7615C148.962 53.7615 148.837 53.7193 148.754 53.6349C148.712 53.5505 148.671 53.4662 148.671 53.2974V47.7278C148.671 47.6856 148.671 47.6434 148.712 47.6012C148.712 47.6012 148.754 47.6012 148.795 47.6012H149.337C149.378 47.6012 149.42 47.6012 149.42 47.6012C149.461 47.6434 149.461 47.6856 149.461 47.7278V49.9641H151.043C151.501 49.9641 151.876 50.0063 152.167 50.1751C152.417 50.3016 152.625 50.4704 152.792 50.6814C152.916 50.8501 153 51.0611 153.041 51.2721C153.083 51.5252 153.125 51.694 153.125 51.8628C153.125 52.116 153.041 52.3691 152.958 52.6223C152.875 52.8333 152.708 53.0442 152.542 53.213C152.375 53.3818 152.167 53.5084 151.917 53.5927C151.668 53.6771 151.418 53.7615 151.127 53.7615H149.087ZM152.292 51.7784C152.292 51.6518 152.25 51.4831 152.209 51.3565C152.167 51.1877 152.084 51.0611 151.959 50.9767C151.876 50.8501 151.751 50.7658 151.584 50.7236C151.418 50.6392 151.251 50.6392 151.043 50.6392H149.461V53.002H151.043C151.293 53.002 151.501 52.9598 151.668 52.8754C151.834 52.7911 151.959 52.7067 152.042 52.5801C152.126 52.4535 152.209 52.3269 152.25 52.2003C152.292 52.0316 152.292 51.905 152.292 51.7784ZM154.498 53.5927C154.498 53.6771 154.498 53.7193 154.457 53.7193C154.457 53.7193 154.415 53.7615 154.373 53.7615H153.832C153.791 53.7615 153.749 53.7193 153.749 53.7193C153.707 53.7193 153.707 53.6771 153.707 53.5927V47.7278C153.707 47.6856 153.707 47.6434 153.749 47.6434C153.749 47.6012 153.791 47.6012 153.832 47.6012H154.373C154.415 47.6012 154.457 47.6012 154.457 47.6434C154.498 47.6434 154.498 47.6856 154.498 47.7278V53.5927ZM159.91 48.6983L159.16 50.0063L157.162 53.3818C157.079 53.5084 157.037 53.5927 156.954 53.6771C156.913 53.7193 156.829 53.7615 156.704 53.7615H156.455C156.288 53.7615 156.163 53.7193 156.122 53.6349C156.038 53.5505 156.038 53.4662 156.038 53.2974V47.7278C156.038 47.6856 156.038 47.6434 156.08 47.6012C156.08 47.6012 156.122 47.6012 156.163 47.6012H156.663C156.746 47.6012 156.746 47.6012 156.788 47.6012C156.788 47.6434 156.829 47.6856 156.829 47.7278V52.6223L157.537 51.4409L159.618 47.9388C159.702 47.8122 159.743 47.7278 159.826 47.6856C159.868 47.6012 159.951 47.6012 160.076 47.6012H160.326C160.492 47.6012 160.617 47.6434 160.659 47.6856C160.742 47.77 160.742 47.8966 160.742 48.0232V53.5927C160.742 53.6771 160.742 53.7193 160.701 53.7193C160.701 53.7193 160.659 53.7615 160.617 53.7615H160.118C160.035 53.7615 160.035 53.7193 159.993 53.7193C159.993 53.7193 159.951 53.6771 159.951 53.5927V48.6983H159.91ZM158.328 47.3059C158.036 47.3059 157.745 47.2215 157.537 47.0527C157.287 46.8417 157.079 46.6308 156.913 46.3776C156.913 46.3776 156.913 46.3354 156.871 46.3354C156.871 46.2932 156.913 46.251 156.954 46.2088L157.121 46.0823C157.162 46.0401 157.204 46.0401 157.204 46.0401C157.246 46.0401 157.246 46.0823 157.287 46.1245C157.454 46.2932 157.662 46.462 157.828 46.5464C157.995 46.673 158.161 46.7152 158.328 46.7152C158.494 46.7152 158.619 46.673 158.786 46.5886C158.952 46.5042 159.16 46.3354 159.41 46.0823C159.452 46.0401 159.452 46.0401 159.493 46.0401C159.493 46.0401 159.535 46.0401 159.577 46.0401L159.743 46.2088C159.785 46.251 159.785 46.2932 159.785 46.3354C159.785 46.3354 159.785 46.3776 159.743 46.3776C159.535 46.7152 159.285 46.9683 159.035 47.0949C158.786 47.2215 158.536 47.3059 158.328 47.3059ZM169.525 53.002C169.609 53.0442 169.65 53.0442 169.692 53.0864C169.733 53.0864 169.775 53.1286 169.775 53.1708C169.817 53.1708 169.817 53.213 169.817 53.2552C169.817 53.2974 169.817 53.3396 169.817 53.3818L169.692 55.0695C169.692 55.1117 169.692 55.1539 169.692 55.1539C169.65 55.1961 169.609 55.1961 169.609 55.1961H169.192C169.109 55.1961 169.067 55.1539 169.067 55.0695L169.026 53.7615H165.113C164.946 53.7615 164.863 53.6771 164.738 53.5927C164.655 53.5084 164.613 53.3818 164.613 53.213V47.7278C164.613 47.6856 164.613 47.6434 164.655 47.6012C164.655 47.6012 164.697 47.6012 164.738 47.6012H165.279C165.321 47.6012 165.363 47.6012 165.363 47.6012C165.404 47.6434 165.404 47.6856 165.404 47.7278V53.0442H168.443V47.7278C168.443 47.6856 168.443 47.6434 168.485 47.6012C168.526 47.6012 168.568 47.6012 168.61 47.6012H169.109C169.151 47.6012 169.192 47.6012 169.234 47.6012C169.234 47.6434 169.234 47.6856 169.234 47.7278V53.002H169.525ZM174.937 53.5505C174.937 53.6349 174.937 53.6771 174.937 53.6771C174.895 53.7193 174.853 53.7615 174.77 53.7615H172.397C172.106 53.7615 171.856 53.7193 171.69 53.6349C171.482 53.5505 171.357 53.424 171.232 53.2974C171.107 53.1708 171.024 53.002 170.982 52.8333C170.941 52.6223 170.899 52.4535 170.899 52.2425V49.1202C170.899 48.9092 170.941 48.6983 170.982 48.5295C171.065 48.3607 171.149 48.1919 171.232 48.0654C171.357 47.8966 171.523 47.8122 171.69 47.7278C171.898 47.6434 172.106 47.6012 172.397 47.6012H174.729C174.812 47.6012 174.853 47.6012 174.853 47.6434C174.895 47.6856 174.895 47.7278 174.895 47.77V48.1498C174.895 48.1919 174.895 48.2763 174.853 48.2763C174.853 48.3185 174.812 48.3185 174.729 48.3185H172.397C172.148 48.3185 171.981 48.3607 171.856 48.4873C171.773 48.6139 171.69 48.7405 171.69 48.9936V50.1329H174.437C174.52 50.1329 174.562 50.1329 174.562 50.1751C174.604 50.2172 174.604 50.2594 174.604 50.3016V50.6392C174.604 50.7236 174.604 50.7658 174.562 50.7658C174.562 50.808 174.52 50.808 174.437 50.808H171.69V52.3269C171.69 52.5379 171.773 52.7067 171.856 52.8333C171.981 52.9598 172.148 53.002 172.397 53.002H174.77C174.853 53.002 174.895 53.002 174.937 53.0442C174.937 53.0864 174.937 53.1286 174.937 53.1708V53.5505ZM180.015 47.77C180.015 47.6856 180.015 47.6434 180.057 47.6434C180.057 47.6012 180.098 47.6012 180.182 47.6012H180.639C180.681 47.6012 180.764 47.6012 180.764 47.6434C180.806 47.6434 180.806 47.6856 180.806 47.77V53.5927C180.806 53.6771 180.806 53.6771 180.764 53.7193C180.764 53.7193 180.681 53.7615 180.639 53.7615H180.182C180.098 53.7615 180.057 53.7193 180.057 53.7193C180.015 53.6771 180.015 53.6771 180.015 53.5927V50.8501H176.935V53.5927C176.935 53.6771 176.935 53.6771 176.935 53.7193C176.893 53.7193 176.851 53.7615 176.768 53.7615H176.31C176.269 53.7615 176.227 53.7193 176.185 53.7193C176.144 53.6771 176.144 53.6771 176.144 53.5927V47.77C176.144 47.6856 176.144 47.6434 176.185 47.6434C176.227 47.6012 176.269 47.6012 176.31 47.6012H176.768C176.851 47.6012 176.893 47.6012 176.935 47.6434C176.935 47.6434 176.935 47.6856 176.935 47.77V50.1751H180.015V47.77ZM183.595 48.3185H181.93C181.888 48.3185 181.847 48.3185 181.805 48.2763C181.805 48.2763 181.805 48.2341 181.805 48.1919V47.7278C181.805 47.6856 181.805 47.6434 181.805 47.6434C181.847 47.6012 181.888 47.6012 181.93 47.6012H186.176C186.217 47.6012 186.259 47.6012 186.259 47.6434C186.259 47.6434 186.301 47.6856 186.301 47.7278V48.1919C186.301 48.2341 186.259 48.2763 186.259 48.2763C186.259 48.3185 186.217 48.3185 186.176 48.3185H184.427V53.5927C184.427 53.6771 184.427 53.6771 184.386 53.7193C184.386 53.7193 184.344 53.7615 184.261 53.7615H183.761C183.72 53.7615 183.678 53.7193 183.637 53.7193C183.637 53.6771 183.595 53.6771 183.595 53.5927V48.3185ZM187.258 48.0232C187.258 47.8966 187.3 47.77 187.383 47.6856C187.425 47.6434 187.549 47.6012 187.716 47.6012H189.714C190.005 47.6012 190.255 47.6434 190.463 47.7278C190.713 47.8122 190.88 47.9388 191.046 48.1076C191.213 48.2341 191.337 48.4451 191.462 48.6561C191.546 48.9092 191.587 49.1202 191.587 49.4156C191.587 49.5843 191.546 49.7531 191.504 49.9641C191.462 50.1751 191.337 50.386 191.213 50.597C191.088 50.7658 190.88 50.9345 190.63 51.0611C190.38 51.2299 190.047 51.2721 189.672 51.2721H188.049V53.5927C188.049 53.6771 188.049 53.6771 188.007 53.7193C188.007 53.7193 187.966 53.7615 187.882 53.7615H187.425C187.383 53.7615 187.341 53.7193 187.3 53.7193C187.3 53.6771 187.258 53.6771 187.258 53.5927V48.0232ZM190.755 49.4578C190.755 49.3312 190.755 49.2046 190.713 49.078C190.671 48.9514 190.588 48.8249 190.505 48.6983C190.422 48.6139 190.297 48.5295 190.13 48.4451C189.964 48.3607 189.756 48.3185 189.506 48.3185H188.049V50.5548H189.547C189.964 50.5548 190.255 50.4704 190.463 50.2594C190.671 50.0907 190.755 49.7953 190.755 49.4578Z" fill="#454848"/>
<path d="M71.4987 37.6436C71.4987 37.8546 71.4571 37.9812 71.4154 38.0656C71.3322 38.1078 71.1657 38.15 70.8743 38.15H67.3777C67.0031 38.15 66.7949 37.9812 66.7949 37.6436V25.3653C66.7949 24.7324 66.8782 24.1417 67.0447 23.5932C67.2112 23.0025 67.4609 22.4961 67.8356 22.032C68.2102 21.6101 68.7097 21.2303 69.3341 20.9772C69.9585 20.724 70.6662 20.5552 71.5403 20.5552H79.0746C79.2828 20.5552 79.4077 20.5974 79.4909 20.6396C79.5325 20.724 79.5742 20.8928 79.5742 21.1881V24.0151C79.5742 24.2261 79.5325 24.3948 79.4493 24.437C79.4077 24.5214 79.2828 24.5636 79.0746 24.5636H72.9556C72.6226 24.5636 72.3728 24.6058 72.1647 24.6902C71.9982 24.8168 71.8317 24.9012 71.7484 25.0277C71.6236 25.1965 71.5819 25.3231 71.5403 25.4919C71.4987 25.6607 71.4987 25.8294 71.4987 25.9982V37.6436ZM86.4009 34.1838C87.4415 34.1838 88.2324 33.9306 88.7735 33.3821C89.3147 32.8336 89.6893 32.0319 89.8558 30.9348H84.9856C84.7774 30.9348 84.6526 30.9348 84.5693 30.8927C84.4861 30.8505 84.4444 30.7239 84.4444 30.5129V27.7703C84.4444 27.5594 84.4861 27.3906 84.5693 27.3484C84.6526 27.264 84.7774 27.264 84.9856 27.264H89.8142C89.731 26.7155 89.5644 26.2936 89.3979 25.956C89.1898 25.5763 88.9401 25.3231 88.6487 25.1121C88.3573 24.859 88.0243 24.7324 87.6496 24.648C87.3166 24.5214 86.942 24.4792 86.5674 24.4792C86.276 24.4792 85.9846 24.4792 85.7348 24.5214C85.4851 24.5214 85.2353 24.5636 84.9856 24.6058C84.7774 24.648 84.5277 24.7324 84.2779 24.8168C83.9865 24.9012 83.6952 24.9856 83.3621 25.0699C83.0708 25.1543 82.8626 25.1965 82.7794 25.1121C82.6545 25.0699 82.5712 24.9012 82.4464 24.5636L81.6555 22.4961C81.6138 22.3274 81.5722 22.2008 81.5306 22.0742C81.489 21.9898 81.489 21.9054 81.489 21.821C81.5306 21.7366 81.5722 21.6945 81.6138 21.6101C81.6971 21.5679 81.822 21.5257 81.9469 21.4413C82.6545 21.0615 83.4454 20.7662 84.3195 20.5974C85.1521 20.4286 86.0678 20.3021 87.0252 20.3021C88.274 20.3021 89.3979 20.513 90.397 20.8928C91.3544 21.3147 92.1869 21.8632 92.8529 22.6227C93.5189 23.3822 94.0184 24.2683 94.3931 25.3653C94.7261 26.4201 94.8926 27.6437 94.8926 28.9939C94.8926 30.3019 94.7677 31.5256 94.4763 32.6648C94.185 33.804 93.7271 34.8167 93.1027 35.6605C92.4367 36.5044 91.6041 37.1795 90.6051 37.6858C89.5644 38.1921 88.3157 38.4453 86.8587 38.4453C85.7765 38.4453 84.7358 38.3187 83.6952 38.1078C82.6961 37.8546 81.6971 37.4327 80.6981 36.842C80.5316 36.7576 80.4067 36.631 80.4067 36.5044C80.4067 36.3778 80.4483 36.1669 80.5732 35.9137L81.6138 33.6774C81.7387 33.3821 81.8636 33.2133 81.9469 33.1711C82.0717 33.1289 82.2382 33.1711 82.488 33.2977C83.0291 33.4665 83.5703 33.6774 84.1947 33.8884C84.8191 34.0994 85.5683 34.1838 86.4009 34.1838ZM108.255 28.8252C108.671 28.9518 109.046 29.1205 109.295 29.3315C109.587 29.5003 109.836 29.7534 110.003 29.9644C110.169 30.2176 110.336 30.5129 110.419 30.8083C110.544 31.1036 110.627 31.4412 110.752 31.8209L112.292 37.6436C112.292 37.728 112.334 37.8546 112.292 37.9812C112.251 38.1078 112.167 38.15 111.918 38.15H108.213C108.13 38.15 108.046 38.15 107.963 38.1078C107.838 38.0656 107.755 37.9812 107.713 37.8124L106.173 32.5382C106.048 32.1163 105.882 31.7787 105.715 31.5256C105.549 31.2724 105.341 31.0614 105.091 30.9348C104.883 30.8083 104.592 30.6817 104.258 30.6395C103.925 30.5973 103.551 30.5551 103.093 30.5551H102.011V37.7702C102.011 37.939 101.969 38.0656 101.927 38.1078C101.844 38.15 101.719 38.15 101.553 38.15H97.7648C97.6399 38.15 97.515 38.15 97.4318 38.1078C97.3902 38.0656 97.3485 37.939 97.3485 37.7702V20.9772C97.3485 20.8084 97.3902 20.6818 97.4318 20.6396C97.515 20.5974 97.6399 20.5552 97.7648 20.5552H101.594C101.761 20.5552 101.886 20.5974 101.927 20.6396C102.011 20.6818 102.011 20.8084 102.011 20.9772V27.2218H103.176C103.426 27.2218 103.676 27.1796 103.967 27.1374C104.217 27.1374 104.508 27.053 104.758 26.8843C105.008 26.7577 105.216 26.5467 105.424 26.2514C105.632 25.9982 105.799 25.6185 105.924 25.1121L107.089 20.8928C107.089 20.724 107.172 20.5974 107.297 20.5552C107.38 20.5552 107.505 20.513 107.589 20.513H111.252C111.46 20.513 111.585 20.5974 111.585 20.724C111.626 20.8506 111.626 20.935 111.585 21.0194L110.378 25.5341C110.211 26.2092 109.961 26.8421 109.587 27.3906C109.212 27.9391 108.754 28.361 108.255 28.6986V28.8252ZM129.317 29.3315C129.317 30.7661 129.193 32.0319 128.901 33.1289C128.61 34.2681 128.11 35.1964 127.486 35.9981C126.862 36.7998 126.029 37.3905 125.03 37.8124C124.031 38.2343 122.824 38.4453 121.408 38.4453C120.076 38.4453 118.911 38.2343 117.912 37.8124C116.954 37.3905 116.122 36.7998 115.498 36.0403C114.873 35.2386 114.415 34.3103 114.082 33.1711C113.791 32.0741 113.624 30.8083 113.624 29.3737C113.624 28.0235 113.833 26.7577 114.166 25.6607C114.499 24.5214 114.998 23.551 115.622 22.7915C116.288 21.9898 117.121 21.3569 118.078 20.935C119.036 20.513 120.201 20.3021 121.492 20.3021C122.824 20.3021 123.989 20.513 124.947 20.935C125.946 21.3569 126.778 21.9898 127.403 22.7493C128.069 23.551 128.568 24.4792 128.86 25.6185C129.193 26.7155 129.317 27.9813 129.317 29.3315ZM124.406 29.3737C124.364 28.6986 124.322 28.1079 124.239 27.475C124.156 26.8843 123.989 26.3779 123.781 25.956C123.573 25.5341 123.282 25.1543 122.907 24.9012C122.491 24.648 122.033 24.5214 121.45 24.5214C120.992 24.5214 120.534 24.648 120.201 24.9012C119.827 25.1543 119.535 25.4919 119.286 25.9138C119.077 26.3357 118.869 26.8421 118.786 27.3906C118.661 27.9813 118.62 28.572 118.62 29.2049C118.62 29.9644 118.661 30.6395 118.744 31.2724C118.828 31.9053 118.994 32.4116 119.244 32.8336C119.494 33.2555 119.785 33.593 120.16 33.8462C120.534 34.0572 121.034 34.1838 121.575 34.1838C122.116 34.1838 122.574 34.0572 122.949 33.804C123.282 33.5509 123.573 33.1711 123.823 32.7492C124.031 32.285 124.156 31.7787 124.281 31.188C124.364 30.5973 124.406 30.0066 124.406 29.3737ZM146.176 29.3315H146.01L144.761 32.2007L143.47 34.9854C143.262 35.4074 143.096 35.7027 142.888 35.8715C142.721 35.9981 142.43 36.0825 142.055 36.0825H140.432C140.015 36.0825 139.724 35.9981 139.558 35.8715C139.391 35.7027 139.224 35.4074 139.016 34.9854L137.892 32.7492L136.477 29.6268H136.311V37.6858C136.311 37.8968 136.269 38.0656 136.186 38.1078C136.103 38.15 135.978 38.15 135.77 38.15H132.315C132.148 38.15 132.023 38.15 131.898 38.1078C131.815 38.0656 131.773 37.8968 131.773 37.6858V22.5383C131.773 21.7788 131.898 21.2303 132.19 20.9772C132.481 20.724 132.897 20.5552 133.563 20.5552H135.437C135.978 20.5552 136.352 20.6818 136.602 20.8506C136.81 21.0615 137.06 21.3569 137.268 21.821L139.266 25.956L141.181 30.091H141.264L143.221 26.0404L145.177 21.8632C145.427 21.4413 145.635 21.1037 145.926 20.8928C146.176 20.6818 146.634 20.5552 147.258 20.5552H148.799C149.048 20.5552 149.298 20.5974 149.506 20.6396C149.714 20.6818 149.922 20.7662 150.047 20.8928C150.214 21.0194 150.339 21.1881 150.422 21.4413C150.505 21.6945 150.547 21.9898 150.547 22.3695V37.6858C150.547 37.8968 150.505 38.0656 150.422 38.1078C150.339 38.15 150.214 38.15 149.964 38.15H146.717C146.509 38.15 146.384 38.15 146.301 38.1078C146.218 38.0656 146.176 37.8968 146.176 37.6858V29.3315ZM174.315 37.6436C174.315 37.8546 174.274 37.9812 174.232 38.0656C174.19 38.1078 174.024 38.15 173.733 38.15H170.194C169.82 38.15 169.653 37.9812 169.653 37.6436V22.243C169.653 21.7788 169.736 21.3991 169.945 21.0615C170.111 20.724 170.569 20.5552 171.235 20.5552H177.521C178.52 20.5552 179.394 20.724 180.143 21.0194C180.892 21.2725 181.517 21.6945 182.016 22.2008C182.557 22.7071 182.932 23.2978 183.182 23.9729C183.473 24.6902 183.598 25.4075 183.598 26.2092C183.598 26.5045 183.556 26.8421 183.515 27.2218C183.473 27.6437 183.348 28.0657 183.223 28.4876C183.057 28.9096 182.807 29.3737 182.516 29.7956C182.224 30.2598 181.808 30.6395 181.309 30.977C180.809 31.3568 180.185 31.6521 179.435 31.8631C178.686 32.0741 177.77 32.1585 176.73 32.1585H174.315V37.6436ZM178.769 26.5467C178.769 26.3779 178.728 26.167 178.686 25.956C178.644 25.745 178.561 25.5341 178.436 25.3653C178.311 25.1543 178.103 24.9856 177.895 24.859C177.645 24.7324 177.354 24.648 176.979 24.648H174.315V28.4454H176.979C177.562 28.4454 178.02 28.2767 178.311 27.8547C178.603 27.475 178.769 27.053 178.769 26.5467ZM197.793 28.8252C198.209 28.9518 198.583 29.1205 198.875 29.3315C199.125 29.5003 199.374 29.7534 199.541 29.9644C199.749 30.2176 199.874 30.5129 199.999 30.8083C200.082 31.1036 200.207 31.4412 200.29 31.8209L201.83 37.6436C201.872 37.728 201.872 37.8546 201.83 37.9812C201.83 38.1078 201.705 38.15 201.497 38.15H197.751C197.668 38.15 197.584 38.15 197.501 38.1078C197.376 38.0656 197.335 37.9812 197.251 37.8124L195.711 32.5382C195.586 32.1163 195.461 31.7787 195.295 31.5256C195.087 31.2724 194.879 31.0614 194.671 30.9348C194.421 30.8083 194.129 30.6817 193.796 30.6395C193.463 30.5973 193.089 30.5551 192.673 30.5551H191.549V37.7702C191.549 37.939 191.549 38.0656 191.465 38.1078C191.424 38.15 191.299 38.15 191.132 38.15H187.344C187.178 38.15 187.053 38.15 187.011 38.1078C186.928 38.0656 186.886 37.939 186.886 37.7702V20.9772C186.886 20.8084 186.928 20.6818 187.011 20.6396C187.053 20.5974 187.178 20.5552 187.344 20.5552H191.132C191.299 20.5552 191.424 20.5974 191.507 20.6396C191.549 20.6818 191.59 20.8084 191.549 20.9772V27.2218H192.714C192.964 27.2218 193.255 27.1796 193.505 27.1374C193.796 27.1374 194.046 27.053 194.296 26.8843C194.546 26.7577 194.754 26.5467 194.962 26.2514C195.17 25.9982 195.337 25.6185 195.503 25.1121L196.627 20.8928C196.669 20.724 196.71 20.5974 196.835 20.5552C196.96 20.5552 197.043 20.513 197.127 20.513H200.79C200.998 20.513 201.123 20.5974 201.164 20.724C201.164 20.8506 201.164 20.935 201.123 21.0194L199.957 25.5341C199.791 26.2092 199.499 26.8421 199.125 27.3906C198.75 27.9391 198.334 28.361 197.793 28.6986V28.8252ZM220.063 34.0572L221.644 34.1838C222.061 34.226 222.31 34.3525 222.435 34.5213C222.602 34.7323 222.643 35.0276 222.643 35.4074L222.352 41.7786C222.352 41.9052 222.31 42.0318 222.227 42.1583C222.185 42.2427 222.019 42.2849 221.811 42.2849H219.188C218.939 42.2849 218.772 42.2427 218.689 42.1583C218.647 42.074 218.606 41.9052 218.606 41.7364L218.481 38.15H206.784C206.118 38.15 205.66 38.0234 205.493 37.728C205.285 37.4749 205.16 37.0529 205.16 36.5044V21.1037C205.16 20.7662 205.369 20.5552 205.743 20.5552H209.281C209.531 20.5552 209.698 20.5974 209.781 20.6818C209.823 20.7662 209.864 20.8928 209.864 21.1037V34.1416H215.359V21.1037C215.359 20.935 215.4 20.7662 215.484 20.6818C215.567 20.5974 215.692 20.5552 215.9 20.5552H219.438C219.73 20.5552 219.896 20.5974 219.979 20.6818C220.021 20.7662 220.063 20.8928 220.063 21.1037V34.0572Z" fill="#454848"/>
<path fill-rule="evenodd" clip-rule="evenodd" d="M26.5426 14.2683L9.18446 26.1247C8.01893 26.9264 6.39551 27.1374 6.18738 26.5045C6.0625 26.1669 6.18738 25.534 7.31128 24.7745L25.5019 12.3696C25.5019 12.3696 27.5 10.8928 29.3315 12.1165L48.8959 24.9011C49.6451 25.4074 49.1872 25.9982 48.3547 25.534L28.6239 14.0996C27.7081 13.551 27.4167 13.6776 26.5426 14.2683ZM15.803 16.9265L26.7923 9.58484C26.7923 9.58484 27.3751 9.07852 28.166 9.58484L54.1824 25.3653C54.3073 25.4496 54.6403 25.534 54.7652 25.3653C54.89 25.2387 54.8484 24.9855 54.1824 24.5214L29.6646 7.93929C28.5823 7.222 26.7923 6.96883 25.2106 8.06587L18.4255 12.8337C18.4255 12.8337 18.3006 10.0068 15.8447 10.0912L9.80886 10.3021C9.80886 10.3021 7.31128 10.5131 7.51941 13.0025L8.10218 19.1206C8.10218 19.1206 8.22706 19.8379 7.39454 20.4708L0.526212 25.6184C0.0683234 25.956 -0.597696 27.1796 1.06735 26.3357C2.7324 25.4918 8.68495 21.821 8.68495 21.821C8.68495 21.821 10.4332 20.8505 10.3084 18.2767L9.97536 13.2979C9.97536 13.2979 9.7256 12.2008 11.0576 12.2008L15.2203 12.1586C15.2203 12.1586 16.0528 11.8633 16.0528 12.8759L16.0112 14.3105C16.0112 14.3105 14.6791 15.1122 14.0964 15.9139C13.5552 16.7156 13.472 17.7704 15.803 16.9265ZM10.9744 3.29799C10.9744 3.29799 12.8476 5.61864 12.4313 6.67348C12.015 7.72832 11.1825 8.36122 10.5165 8.36122C9.68398 8.36122 9.14284 7.68613 9.5591 6.92664C9.76723 6.5047 10.2251 6.25154 9.80886 5.70303C9.30934 5.02793 7.85242 2.87605 8.7682 1.61025C9.68398 0.302243 10.683 0.0490813 12.6811 0.00688764C14.6375 -0.0774996 14.138 0.639792 13.7633 0.724179C13.4303 0.808566 11.8069 1.44147 11.2241 1.82121C10.6414 2.20096 10.4332 2.45412 10.9744 3.29799ZM14.1796 5.32328C14.6375 5.61864 14.6375 5.91399 14.4294 6.12496C14.3045 6.25154 13.9299 6.71567 13.7633 7.13761C13.3055 8.06587 15.0954 8.31903 15.6365 8.10806C16.2609 7.8549 17.0934 6.80006 17.0934 5.61864C17.0934 4.47941 15.7614 3.8887 15.3035 3.71993C14.804 3.59335 14.2212 3.42457 14.2629 3.08702C14.3461 2.74947 14.138 2.66509 13.805 2.66509C13.472 2.66509 12.6811 3.08702 12.7643 3.50896C12.8892 4.01528 13.8466 5.02793 14.1796 5.32328Z" fill="#E85222"/>
<path fill-rule="evenodd" clip-rule="evenodd" d="M19.5909 25.7028H41.8192C42.2771 25.7028 42.6518 26.0825 42.6518 26.5466V49.4156C42.6518 54.4366 38.614 58.5716 33.6605 58.5716H11.4321C10.9742 58.5716 10.5996 58.1918 10.5996 57.7277V34.8588C10.5996 29.8377 14.6373 25.7028 19.5909 25.7028ZM20.7567 30.4284H20.7984C21.0481 30.4284 21.2979 30.6816 21.2979 30.9347V36.2089H23.1707C23.2955 36.2089 23.4204 36.3355 23.4204 36.5043V40.0907C23.4204 40.2173 23.2955 40.3439 23.1707 40.3439H21.2979V43.9303H23.1707C23.2955 43.9303 23.4204 44.0569 23.4204 44.1835V47.77C23.4204 47.9387 23.2955 48.0653 23.1707 48.0653H21.283C21.0901 50.8292 19.0493 53.8459 16.5941 53.8459H16.5525C16.2611 53.8459 16.053 53.5927 16.053 53.2974V36.5887C16.053 33.7617 18.1759 30.4284 20.7567 30.4284ZM28.7073 30.4284H28.749C29.0404 30.4284 29.2485 30.6816 29.2485 30.9347V36.2089H31.038C31.1629 36.2089 31.2878 36.3355 31.2878 36.5043V40.0907C31.2878 40.2173 31.1629 40.3439 31.038 40.3439H29.2485V43.9303H31.038C31.1629 43.9303 31.2878 44.0569 31.2878 44.1835V47.77C31.2878 47.9387 31.1629 48.0653 31.038 48.0653H29.2336C29.0407 50.8292 26.9999 53.8459 24.5447 53.8459H24.5031C24.2117 53.8459 24.0036 53.5927 24.0036 53.2974V36.5887C24.0036 33.7617 26.1265 30.4284 28.7073 30.4284ZM36.658 30.4284H36.7412C36.991 30.4284 37.1991 30.6816 37.1991 30.9347V47.6434C37.1991 50.5126 35.0762 53.8459 32.4953 53.8459H32.4537C32.204 53.8459 31.9958 53.5927 31.9958 53.2974V36.5887C31.9958 33.7617 34.0771 30.4284 36.658 30.4284Z" fill="#E85222"/>
<path fill-rule="evenodd" clip-rule="evenodd" d="M160.039 26.3357C161.745 26.3357 163.119 27.7281 163.119 29.4159C163.119 31.1458 161.745 32.5382 160.039 32.5382C158.374 32.5382 157 31.1458 157 29.4159C157 27.7281 158.374 26.3357 160.039 26.3357Z" fill="#E85222"/>
</svg>
