<svg width="60" height="57" viewBox="0 0 60 57" fill="none" xmlns="http://www.w3.org/2000/svg">
<path d="M51 12H42V9C42 6.61305 41.0518 4.32387 39.364 2.63604C37.6761 0.948212 35.3869 0 33 0H27C24.6131 0 22.3239 0.948212 20.636 2.63604C18.9482 4.32387 18 6.61305 18 9V12H9C6.61305 12 4.32387 12.9482 2.63604 14.636C0.948212 16.3239 0 18.6131 0 21V48C0 50.387 0.948212 52.6761 2.63604 54.364C4.32387 56.0518 6.61305 57 9 57H51C53.3869 57 55.6761 56.0518 57.364 54.364C59.0518 52.6761 60 50.387 60 48V21C60 18.6131 59.0518 16.3239 57.364 14.636C55.6761 12.9482 53.3869 12 51 12ZM24 9C24 8.20435 24.3161 7.44129 24.8787 6.87868C25.4413 6.31607 26.2044 6 27 6H33C33.7957 6 34.5587 6.31607 35.1213 6.87868C35.6839 7.44129 36 8.20435 36 9V12H24V9ZM54 48C54 48.7957 53.6839 49.5587 53.1213 50.1213C52.5587 50.6839 51.7957 51 51 51H9C8.20435 51 7.44129 50.6839 6.87868 50.1213C6.31607 49.5587 6 48.7957 6 48V31.5C8.92633 32.6607 11.9345 33.6033 15 34.32V36.09C15 36.8857 15.3161 37.6487 15.8787 38.2113C16.4413 38.7739 17.2044 39.09 18 39.09C18.7956 39.09 19.5587 38.7739 20.1213 38.2113C20.6839 37.6487 21 36.8857 21 36.09V35.46C23.983 35.8661 26.9895 36.0766 30 36.09C33.0105 36.0766 36.017 35.8661 39 35.46V36.09C39 36.8857 39.3161 37.6487 39.8787 38.2113C40.4413 38.7739 41.2043 39.09 42 39.09C42.7957 39.09 43.5587 38.7739 44.1213 38.2113C44.6839 37.6487 45 36.8857 45 36.09V34.32C48.0655 33.6033 51.0737 32.6607 54 31.5V48ZM54 24.93C51.0822 26.1615 48.0731 27.1645 45 27.93V27C45 26.2044 44.6839 25.4413 44.1213 24.8787C43.5587 24.3161 42.7957 24 42 24C41.2043 24 40.4413 24.3161 39.8787 24.8787C39.3161 25.4413 39 26.2044 39 27V29.22C33.0338 30.1201 26.9662 30.1201 21 29.22V27C21 26.2044 20.6839 25.4413 20.1213 24.8787C19.5587 24.3161 18.7956 24 18 24C17.2044 24 16.4413 24.3161 15.8787 24.8787C15.3161 25.4413 15 26.2044 15 27V27.99C11.9269 27.2245 8.91782 26.2215 6 24.99V21C6 20.2044 6.31607 19.4413 6.87868 18.8787C7.44129 18.3161 8.20435 18 9 18H51C51.7957 18 52.5587 18.3161 53.1213 18.8787C53.6839 19.4413 54 20.2044 54 21V24.93Z" fill="white"/>
</svg>
