<svg width="14" height="24" viewBox="0 0 14 24" fill="none" xmlns="http://www.w3.org/2000/svg">
<path d="M6.91305 12.4094C3.52301 12.4094 0.705375 9.59412 0.705375 6.26288C0.705375 2.81643 3.52301 0 6.91425 0C10.4207 0 13.1219 2.81523 13.1219 6.26288C13.1159 7.89856 12.4607 9.46492 11.3002 10.6177C10.1398 11.7705 8.56914 12.4153 6.93345 12.4106L6.91305 12.4094ZM6.91305 3.62045C5.47784 3.62045 4.38582 4.82646 4.38582 6.26408C4.38582 7.6993 5.47784 8.79131 6.91425 8.79131C8.40827 8.79131 9.44268 7.6993 9.44268 6.26408C9.44388 4.82526 8.40827 3.62045 6.91305 3.62045ZM9.38508 17.5238L12.8927 20.9139C13.5827 21.6591 13.5827 22.7511 12.8927 23.4411C12.1463 24.1863 10.9955 24.1863 10.4207 23.4411L6.91425 19.9934L3.52301 23.4411C3.17861 23.7855 2.7178 23.9571 2.19939 23.9571C1.79739 23.9571 1.33778 23.7843 0.934578 23.4411C0.244569 22.7511 0.244569 21.6591 0.934578 20.9127L4.49862 17.5226C3.21153 17.1415 1.97683 16.6017 0.822976 15.9158C-0.0398347 15.4562 -0.211436 14.3078 0.248169 13.445C0.822977 12.5834 1.85739 12.3542 2.7778 12.929C4.02413 13.6895 5.45597 14.0919 6.91605 14.0919C8.37613 14.0919 9.80797 13.6895 11.0543 12.929C11.9747 12.3542 13.0655 12.5834 13.5827 13.445C14.1011 14.3078 13.8695 15.455 13.0643 15.9158C11.9735 16.6058 10.7087 17.123 9.38628 17.525L9.38508 17.5238Z" fill="black" fill-opacity="0.4"/>
</svg>
