<svg width="48" height="60" viewBox="0 0 48 60" fill="none" xmlns="http://www.w3.org/2000/svg">
<path d="M33 36H15C14.2044 36 13.4413 36.3161 12.8787 36.8787C12.3161 37.4413 12 38.2043 12 39C12 39.7957 12.3161 40.5587 12.8787 41.1213C13.4413 41.6839 14.2044 42 15 42H33C33.7957 42 34.5587 41.6839 35.1213 41.1213C35.6839 40.5587 36 39.7957 36 39C36 38.2043 35.6839 37.4413 35.1213 36.8787C34.5587 36.3161 33.7957 36 33 36ZM33 24H21C20.2044 24 19.4413 24.3161 18.8787 24.8787C18.3161 25.4413 18 26.2044 18 27C18 27.7956 18.3161 28.5587 18.8787 29.1213C19.4413 29.6839 20.2044 30 21 30H33C33.7957 30 34.5587 29.6839 35.1213 29.1213C35.6839 28.5587 36 27.7956 36 27C36 26.2044 35.6839 25.4413 35.1213 24.8787C34.5587 24.3161 33.7957 24 33 24ZM39 6H35.46C34.8411 4.24935 33.6958 2.733 32.1812 1.65882C30.6666 0.584636 28.8568 0.00521853 27 0H21C19.1432 0.00521853 17.3334 0.584636 15.8188 1.65882C14.3042 2.733 13.1589 4.24935 12.54 6H9C6.61305 6 4.32387 6.94821 2.63604 8.63604C0.948212 10.3239 0 12.6131 0 15V51C0 53.3869 0.948212 55.6761 2.63604 57.364C4.32387 59.0518 6.61305 60 9 60H39C41.3869 60 43.6761 59.0518 45.364 57.364C47.0518 55.6761 48 53.3869 48 51V15C48 12.6131 47.0518 10.3239 45.364 8.63604C43.6761 6.94821 41.3869 6 39 6ZM18 9C18 8.20435 18.3161 7.44129 18.8787 6.87868C19.4413 6.31607 20.2044 6 21 6H27C27.7956 6 28.5587 6.31607 29.1213 6.87868C29.6839 7.44129 30 8.20435 30 9V12H18V9ZM42 51C42 51.7957 41.6839 52.5587 41.1213 53.1213C40.5587 53.6839 39.7957 54 39 54H9C8.20435 54 7.44129 53.6839 6.87868 53.1213C6.31607 52.5587 6 51.7957 6 51V15C6 14.2044 6.31607 13.4413 6.87868 12.8787C7.44129 12.3161 8.20435 12 9 12H12V15C12 15.7956 12.3161 16.5587 12.8787 17.1213C13.4413 17.6839 14.2044 18 15 18H33C33.7957 18 34.5587 17.6839 35.1213 17.1213C35.6839 16.5587 36 15.7956 36 15V12H39C39.7957 12 40.5587 12.3161 41.1213 12.8787C41.6839 13.4413 42 14.2044 42 15V51Z" fill="white"/>
</svg>
