<svg width="60" height="45" viewBox="0 0 60 45" fill="none" xmlns="http://www.w3.org/2000/svg">
<path d="M15 30H24C24.7956 30 25.5587 29.6839 26.1213 29.1213C26.6839 28.5587 27 27.7956 27 27C27 26.2044 26.6839 25.4413 26.1213 24.8787C25.5587 24.3161 24.7956 24 24 24H15C14.2044 24 13.4413 24.3161 12.8787 24.8787C12.3161 25.4413 12 26.2044 12 27C12 27.7956 12.3161 28.5587 12.8787 29.1213C13.4413 29.6839 14.2044 30 15 30ZM51 0H9C6.61305 0 4.32387 0.948212 2.63604 2.63604C0.948212 4.32387 0 6.61305 0 9V36C0 38.3869 0.948212 40.6761 2.63604 42.364C4.32387 44.0518 6.61305 45 9 45H51C53.3869 45 55.6761 44.0518 57.364 42.364C59.0518 40.6761 60 38.3869 60 36V9C60 6.61305 59.0518 4.32387 57.364 2.63604C55.6761 0.948212 53.3869 0 51 0ZM54 36C54 36.7957 53.6839 37.5587 53.1213 38.1213C52.5587 38.6839 51.7957 39 51 39H9C8.20435 39 7.44129 38.6839 6.87868 38.1213C6.31607 37.5587 6 36.7957 6 36V18H54V36ZM54 12H6V9C6 8.20435 6.31607 7.44129 6.87868 6.87868C7.44129 6.31607 8.20435 6 9 6H51C51.7957 6 52.5587 6.31607 53.1213 6.87868C53.6839 7.44129 54 8.20435 54 9V12Z" fill="white"/>
</svg>
