<svg width="67" height="77" viewBox="0 0 67 77" fill="none" xmlns="http://www.w3.org/2000/svg">
<path d="M47.5712 70.2396H40.8666C40.6563 70.2396 40.4493 70.2915 40.264 70.3907C40.0786 70.4899 39.9206 70.6334 39.804 70.8083L37.629 74.0708H12.7707V73.1247L18.9954 61.9202C19.1008 61.7305 19.1561 61.5171 19.1561 61.3V53.6375H16.602V60.9691L10.3773 72.1735C10.2719 72.3633 10.2166 72.5767 10.2166 72.7938V75.3479C10.2166 75.6866 10.3511 76.0115 10.5906 76.251C10.8301 76.4905 11.1549 76.625 11.4936 76.625H38.3124C38.5226 76.625 38.7296 76.5731 38.915 76.4739C39.1003 76.3747 39.2583 76.2312 39.3749 76.0563L41.55 72.7938H47.5712C48.4062 72.7926 49.2321 72.6196 49.9974 72.2855C50.7626 71.9515 51.451 71.4635 52.0195 70.8519L50.147 69.1151C49.8195 69.4715 49.4213 69.7556 48.9778 69.9492C48.5343 70.1428 48.0552 70.2417 47.5712 70.2396Z" fill="white" fill-opacity="0.6"/>
<path d="M63.8541 63.2156C63.8536 63.7235 63.6516 64.2104 63.2924 64.5696C62.9333 64.9287 62.4464 65.1307 61.9385 65.1313H32.5656C32.0577 65.1307 31.5708 64.9287 31.2117 64.5696C30.8525 64.2104 30.6505 63.7235 30.65 63.2156V44.6979H33.2041C35.2357 44.6956 37.1833 43.8876 38.6198 42.4511C40.0563 41.0146 40.8644 39.0669 40.8666 37.0354V31.9271C40.8666 31.5884 40.7321 31.2636 40.4926 31.0241C40.2531 30.7846 39.9283 30.65 39.5896 30.65H26.4393C25.1658 30.6489 23.9243 31.049 22.8912 31.7936C21.8582 32.5382 21.0859 33.5894 20.6843 34.7979L16.6675 46.8482C16.6242 46.9785 16.6021 47.1148 16.6021 47.2521V51.0833H19.1562V47.4593L23.1075 35.6056C23.34 34.906 23.787 34.2974 24.3851 33.8663C24.9832 33.4352 25.702 33.2035 26.4393 33.2042H38.3125V37.0354C38.3109 38.3898 37.7722 39.6882 36.8146 40.6459C35.8569 41.6035 34.5585 42.1422 33.2041 42.1438H28.0958V63.2156C28.0971 64.4007 28.5685 65.5368 29.4064 66.3748C30.2444 67.2127 31.3805 67.6841 32.5656 67.6854H61.9385C63.1236 67.6841 64.2597 67.2127 65.0977 66.3748C65.9356 65.5368 66.407 64.4007 66.4083 63.2156V10.2167H63.8541V63.2156Z" fill="white" fill-opacity="0.6"/>
<path d="M61.9384 0H32.5655C31.3804 0.00132672 30.2443 0.472676 29.4063 1.31064C28.5684 2.1486 28.097 3.28474 28.0957 4.46979V28.0958H30.6499V4.46979C30.6504 3.96191 30.8524 3.47499 31.2116 3.11587C31.5707 2.75674 32.0576 2.55473 32.5655 2.55417H61.9384C62.4463 2.55473 62.9332 2.75674 63.2923 3.11587C63.6515 3.47499 63.8535 3.96191 63.854 4.46979V7.6625H66.4082V4.46979C66.4069 3.28474 65.9355 2.1486 65.0976 1.31064C64.2596 0.472676 63.1235 0.00132672 61.9384 0Z" fill="white" fill-opacity="0.6"/>
<path d="M56.1914 16.6021H58.7456V19.1562H61.2997V15.325C61.2997 14.9863 61.1652 14.6615 60.9257 14.422C60.6862 14.1825 60.3614 14.0479 60.0227 14.0479H56.1914V16.6021Z" fill="white" fill-opacity="0.6"/>
<path d="M61.2997 43.4208V39.5896H58.7456V42.1438H56.1914V44.6979H60.0227C60.3614 44.6979 60.6862 44.5634 60.9257 44.3239C61.1652 44.0844 61.2997 43.7596 61.2997 43.4208Z" fill="white" fill-opacity="0.6"/>
<path d="M33.2041 15.325V19.1562H35.7583V16.6021H38.3124V14.0479H34.4812C34.1425 14.0479 33.8176 14.1825 33.5781 14.422C33.3387 14.6615 33.2041 14.9863 33.2041 15.325Z" fill="white" fill-opacity="0.6"/>
<path d="M49.8061 19.1562C49.4674 19.1562 49.1426 19.2908 48.9031 19.5303C48.6636 19.7698 48.5291 20.0946 48.5291 20.4333V26.8188C48.5291 27.1575 48.6636 27.4823 48.9031 27.7218C49.1426 27.9613 49.4674 28.0958 49.8061 28.0958H56.1916C56.5303 28.0958 56.8551 27.9613 57.0946 27.7218C57.3341 27.4823 57.4686 27.1575 57.4686 26.8188V20.4333C57.4686 20.0946 57.3341 19.7698 57.0946 19.5303C56.8551 19.2908 56.5303 19.1562 56.1916 19.1562H49.8061ZM54.9145 25.5417H51.0832V21.7104H54.9145V25.5417Z" fill="white" fill-opacity="0.6"/>
<path d="M37.0352 20.4333V26.8188C37.0352 27.1575 37.1697 27.4823 37.4092 27.7218C37.6487 27.9613 37.9735 28.0958 38.3122 28.0958H44.6977C45.0364 28.0958 45.3612 27.9613 45.6007 27.7218C45.8402 27.4823 45.9747 27.1575 45.9747 26.8188V20.4333C45.9747 20.0946 45.8402 19.7698 45.6007 19.5303C45.3612 19.2908 45.0364 19.1562 44.6977 19.1562H38.3122C37.9735 19.1562 37.6487 19.2908 37.4092 19.5303C37.1697 19.7698 37.0352 20.0946 37.0352 20.4333ZM39.5893 21.7104H43.4206V25.5417H39.5893V21.7104Z" fill="white" fill-opacity="0.6"/>
<path d="M57.4686 38.3125V31.9271C57.4686 31.5884 57.3341 31.2636 57.0946 31.0241C56.8551 30.7846 56.5303 30.65 56.1916 30.65H49.8061C49.4674 30.65 49.1426 30.7846 48.9031 31.0241C48.6636 31.2636 48.5291 31.5884 48.5291 31.9271V38.3125C48.5291 38.6512 48.6636 38.9761 48.9031 39.2156C49.1426 39.4551 49.4674 39.5896 49.8061 39.5896H56.1916C56.5303 39.5896 56.8551 39.4551 57.0946 39.2156C57.3341 38.9761 57.4686 38.6512 57.4686 38.3125ZM54.9145 37.0354H51.0832V33.2042H54.9145V37.0354Z" fill="white" fill-opacity="0.6"/>
<path d="M45.9748 38.3125V31.9271C45.9748 31.5884 45.8403 31.2636 45.6008 31.0241C45.3613 30.7846 45.0364 30.65 44.6977 30.65H43.4207V39.5896H44.6977C45.0364 39.5896 45.3613 39.4551 45.6008 39.2156C45.8403 38.9761 45.9748 38.6512 45.9748 38.3125Z" fill="white" fill-opacity="0.6"/>
<path d="M40.8665 5.10834H53.6373V7.6625H40.8665V5.10834Z" fill="white" fill-opacity="0.6"/>
<path d="M35.7583 5.10834H38.3125V7.6625H35.7583V5.10834Z" fill="white" fill-opacity="0.6"/>
<path d="M56.1914 5.10834H58.7456V7.6625H56.1914V5.10834Z" fill="white" fill-opacity="0.6"/>
<path d="M38.3125 53.6375C38.3125 55.4056 38.8368 57.134 39.8191 58.6041C40.8014 60.0742 42.1976 61.22 43.8311 61.8966C45.4645 62.5732 47.262 62.7503 48.9961 62.4053C50.7302 62.0604 52.3231 61.209 53.5733 59.9588C54.8235 58.7085 55.675 57.1157 56.0199 55.3815C56.3648 53.6474 56.1878 51.85 55.5112 50.2165C54.8346 48.583 53.6888 47.1868 52.2186 46.2045C50.7485 45.2222 49.0202 44.6979 47.2521 44.6979C44.882 44.7006 42.6097 45.6433 40.9338 47.3192C39.2579 48.9951 38.3152 51.2674 38.3125 53.6375ZM47.2521 47.2521C48.515 47.2521 49.7496 47.6266 50.7996 48.3282C51.8497 49.0299 52.6681 50.0271 53.1514 51.1939C53.6347 52.3607 53.7612 53.6446 53.5148 54.8833C53.2684 56.1219 52.6603 57.2597 51.7673 58.1527C50.8742 59.0457 49.7365 59.6539 48.4978 59.9002C47.2592 60.1466 45.9753 60.0202 44.8085 59.5369C43.6417 59.0536 42.6444 58.2351 41.9428 57.1851C41.2412 56.135 40.8667 54.9004 40.8667 53.6375C40.8686 51.9446 41.542 50.3216 42.739 49.1245C43.9361 47.9274 45.5592 47.254 47.2521 47.2521Z" fill="white" fill-opacity="0.6"/>
<path d="M45.0717 57.0947C45.1903 57.2133 45.3311 57.3073 45.4861 57.3715C45.641 57.4357 45.8071 57.4688 45.9748 57.4688C46.1426 57.4688 46.3086 57.4357 46.4636 57.3715C46.6185 57.3073 46.7593 57.2133 46.8779 57.0947L51.9863 51.9863L50.1801 50.1803L45.9748 54.3856L44.3238 52.7345L42.5176 54.5405L45.0717 57.0947Z" fill="white" fill-opacity="0.6"/>
<path d="M12.765 34.4812C13.0349 34.4814 13.2978 34.3959 13.516 34.2371L16.1685 32.3087C20.5517 29.1577 23.5454 24.4326 24.5224 19.1235C24.5241 19.1136 24.5259 19.1037 24.5274 19.0939L25.4941 12.9695C25.5379 12.692 25.489 12.4078 25.3549 12.161C25.2209 11.9141 25.0092 11.7184 24.7527 11.604L13.2749 6.48591C13.1112 6.41291 12.934 6.37518 12.7548 6.37518C12.5756 6.37518 12.3984 6.41291 12.2348 6.48591L0.756983 11.604C0.500506 11.7183 0.288876 11.9141 0.154846 12.1608C0.0208166 12.4076 -0.0281391 12.6917 0.0155563 12.9691L0.972267 19.0432C0.973863 19.0532 0.97546 19.0631 0.977264 19.073C1.16604 20.1101 1.43376 21.1314 1.77809 22.1278L4.19195 21.2929C3.89186 20.4245 3.65818 19.5346 3.49293 18.6308L2.69084 13.5382L12.7547 9.05066L22.8184 13.5382L22.0067 18.6807C21.1434 23.3374 18.5135 27.4802 14.6667 30.2429L12.77 31.6217L10.7383 30.1253C8.42773 28.4276 6.53768 26.2223 5.2137 23.679L2.94389 24.8501C4.44846 27.7424 6.59685 30.2507 9.22357 32.1819L12.0076 34.2324C12.227 34.3942 12.4925 34.4814 12.765 34.4812Z" fill="white" fill-opacity="0.6"/>
<path d="M11.4634 24.2642C11.6312 24.2644 11.7973 24.2315 11.9523 24.1673C12.1073 24.1031 12.248 24.0089 12.3665 23.8901L20.029 16.2276L18.2228 14.4216L11.4634 21.1811L8.53526 18.2528L6.729 20.0589L10.5603 23.8901C10.6787 24.0089 10.8195 24.1031 10.9745 24.1673C11.1295 24.2315 11.2957 24.2644 11.4634 24.2642Z" fill="white" fill-opacity="0.6"/>
</svg>
