<svg width="28" height="28" viewBox="0 0 28 28" fill="none" xmlns="http://www.w3.org/2000/svg">
<path d="M20.3935 27.9997H20.4327C21.1719 27.9997 21.8706 27.7085 22.3998 27.1793L26.1967 23.3823C26.3269 23.2524 26.4301 23.0981 26.5005 22.9283C26.571 22.7584 26.6072 22.5763 26.6072 22.3925C26.6072 22.2086 26.571 22.0265 26.5005 21.8567C26.4301 21.6868 26.3269 21.5325 26.1967 21.4026L20.5965 15.8024C20.4666 15.6723 20.3123 15.5691 20.1425 15.4986C19.9726 15.4282 19.7905 15.3919 19.6067 15.3919C19.4228 15.3919 19.2407 15.4282 19.0709 15.4986C18.901 15.5691 18.7467 15.6723 18.6168 15.8024L16.3851 18.0341C15.3505 17.7261 13.4198 17.0261 12.1962 15.8024C10.9725 14.5788 10.2725 12.6481 9.96449 11.6135L12.1962 9.38177C12.3263 9.25186 12.4295 9.09757 12.5 8.92772C12.5704 8.75787 12.6067 8.5758 12.6067 8.39193C12.6067 8.20805 12.5704 8.02598 12.5 7.85614C12.4295 7.68629 12.3263 7.532 12.1962 7.40209L6.59596 1.80187C6.3283 1.54923 5.97418 1.4085 5.60612 1.4085C5.23807 1.4085 4.88394 1.54923 4.61628 1.80187L0.820735 5.59882C0.288714 6.13084 -0.0108973 6.86167 0.000303175 7.6079C0.0325044 9.60157 0.560325 16.5262 6.01774 21.9837C11.4752 27.4411 18.3998 27.9675 20.3935 27.9997ZM5.60752 4.77139L9.22806 8.39193L7.41779 10.2022C7.25305 10.3665 7.13204 10.5694 7.06577 10.7924C6.9995 11.0154 6.99008 11.2515 7.03838 11.479C7.07198 11.6401 7.89381 15.458 10.2179 17.7821C12.542 20.1062 16.3599 20.928 16.5209 20.9616C16.7485 21.0102 16.9847 21.0009 17.2077 20.9346C17.4308 20.8683 17.6337 20.7472 17.7978 20.5822L19.6081 18.7719L23.2286 22.3925L20.4201 25.1996C18.6728 25.1702 12.6946 24.7012 7.99742 20.0026C3.28483 15.29 2.82841 9.29076 2.80041 7.5785L5.60752 4.77139ZM25.1999 12.5991H28C28 5.41681 22.5776 0 15.3855 0V2.80011C21.0725 2.80011 25.1999 6.92047 25.1999 12.5991Z" fill="#F1525B"/>
<path d="M15.3997 8.40033C18.344 8.40033 19.5998 9.65618 19.5998 12.6005H22.3999C22.3999 8.08532 19.9148 5.60022 15.3997 5.60022V8.40033Z" fill="#F1525B"/>
</svg>
