<svg width="51" height="60" viewBox="0 0 51 60" fill="none" xmlns="http://www.w3.org/2000/svg">
<path d="M26.6614 33.2926L26.1544 32.9646C25.6085 32.7399 25.0082 32.6824 24.4295 32.7992C23.8509 32.916 23.3199 33.2019 22.9039 33.6207C22.6161 33.8853 22.3918 34.2115 22.2478 34.5749C22.0911 34.9427 22.01 35.3382 22.0092 35.738C22.0139 36.1277 22.095 36.5127 22.2478 36.8712C22.5682 37.5878 23.1416 38.1611 23.8582 38.4815C24.2167 38.6343 24.6017 38.7154 24.9914 38.7201C25.3904 38.7127 25.7847 38.6318 26.1544 38.4815C26.5123 38.3273 26.8365 38.1044 27.1087 37.8255C27.6641 37.2667 27.9759 36.5109 27.9759 35.7231C27.9759 34.9352 27.6641 34.1794 27.1087 33.6207L26.6614 33.2926ZM24.9914 12.0897C23.5685 12.0737 22.1659 12.4282 20.9215 13.1183C19.6771 13.8085 18.6337 14.8106 17.8939 16.0261C17.6781 16.3655 17.5332 16.7451 17.468 17.1419C17.4027 17.5388 17.4184 17.9448 17.5141 18.3354C17.6097 18.7261 17.7835 19.0933 18.0248 19.4151C18.2661 19.7369 18.57 20.0065 18.9182 20.2078C19.2664 20.409 19.6517 20.5378 20.051 20.5863C20.4502 20.6348 20.8552 20.602 21.2414 20.49C21.6277 20.3779 21.9873 20.1889 22.2986 19.9342C22.61 19.6796 22.8666 19.3646 23.053 19.0082C23.273 18.7023 23.5649 18.4553 23.9029 18.2889C24.241 18.1224 24.6148 18.0418 24.9914 18.0539C25.5845 18.0539 26.1534 18.2896 26.5729 18.709C26.9923 19.1285 27.228 19.6974 27.228 20.2905C27.228 20.8837 26.9923 21.4526 26.5729 21.872C26.1534 22.2915 25.5845 22.5271 24.9914 22.5271C24.2005 22.5271 23.4419 22.8413 22.8827 23.4006C22.3234 23.9598 22.0092 24.7184 22.0092 25.5093C22.0092 26.3002 22.3234 27.0587 22.8827 27.618C23.4419 28.1772 24.2005 28.4914 24.9914 28.4914C27.1664 28.4914 29.2523 27.6274 30.7903 26.0894C32.3282 24.5515 33.1922 22.4655 33.1922 20.2905C33.1922 18.1155 32.3282 16.0296 30.7903 14.4917C29.2523 12.9537 27.1664 12.0897 24.9914 12.0897ZM50.5781 23.0639C50.1827 18.6939 48.6596 14.5014 46.158 10.8965C43.6564 7.29167 40.2619 4.39792 36.3065 2.49838C32.3511 0.598842 27.9704 -0.241417 23.5929 0.0598075C19.2154 0.361032 14.9911 1.79342 11.3332 4.21685C8.19957 6.31223 5.5689 9.07563 3.63019 12.3085C1.69148 15.5414 0.492839 19.1636 0.120387 22.9148C-0.244977 26.6415 0.223789 30.4027 1.49267 33.9257C2.76156 37.4486 4.79875 40.645 7.45643 43.2828L23.2617 59.1179C23.539 59.3974 23.8688 59.6193 24.2322 59.7707C24.5956 59.9221 24.9854 60 25.379 60C25.7727 60 26.1625 59.9221 26.5259 59.7707C26.8893 59.6193 27.2191 59.3974 27.4964 59.1179L43.242 43.2828C45.8997 40.645 47.9369 37.4486 49.2058 33.9257C50.4747 30.4027 50.9434 26.6415 50.5781 22.9148V23.0639ZM39.067 39.078L25.3492 52.7958L11.6314 39.078C9.6098 37.0562 8.06121 34.6117 7.09699 31.9201C6.13276 29.2285 5.77685 26.3568 6.05483 23.5112C6.33461 20.6219 7.25294 17.8308 8.74343 15.3397C10.2339 12.8487 12.2593 10.72 14.6732 9.10754C17.8371 7.00584 21.5509 5.88474 25.3492 5.88474C29.1475 5.88474 32.8614 7.00584 36.0253 9.10754C38.4318 10.7138 40.4527 12.8331 41.9429 15.3132C43.433 17.7933 44.3553 20.5727 44.6436 23.4516C44.9307 26.3068 44.5792 29.19 43.6147 31.8927C42.6502 34.5953 41.0969 37.0496 39.067 39.078Z" fill="white"/>
</svg>
