<svg width="59" height="60" viewBox="0 0 59 60" fill="none" xmlns="http://www.w3.org/2000/svg">
<path d="M27.75 53.9843H9.25C8.43225 53.9843 7.64799 53.6684 7.06976 53.1059C6.49152 52.5435 6.16667 51.7806 6.16667 50.9852V8.99739C6.16667 8.20197 6.49152 7.43913 7.06976 6.87669C7.64799 6.31424 8.43225 5.99826 9.25 5.99826H24.6667V14.9957C24.6667 17.3819 25.6412 19.6704 27.3759 21.3578C29.1106 23.0451 31.4634 23.993 33.9167 23.993H43.1667V38.9887C43.1667 39.7841 43.4915 40.547 44.0698 41.1094C44.648 41.6718 45.4323 41.9878 46.25 41.9878C47.0678 41.9878 47.852 41.6718 48.4303 41.1094C49.0085 40.547 49.3333 39.7841 49.3333 38.9887V20.9939V20.814C49.3012 20.5384 49.2392 20.267 49.1483 20.0042V19.7343C49.0001 19.4259 48.8023 19.1424 48.5625 18.8945L30.0625 0.899739C29.8076 0.666455 29.5162 0.474105 29.1992 0.329904C29.0972 0.312538 28.9928 0.312538 28.8908 0.329904C28.591 0.173959 28.2688 0.0627478 27.935 0H9.25C6.79675 0 4.44397 0.947937 2.70926 2.63528C0.974551 4.32261 0 6.61114 0 8.99739V50.9852C0 53.3715 0.974551 55.66 2.70926 57.3473C4.44397 59.0347 6.79675 59.9826 9.25 59.9826H27.75C28.5678 59.9826 29.352 59.6666 29.9302 59.1042C30.5085 58.5417 30.8333 57.7789 30.8333 56.9835C30.8333 56.1881 30.5085 55.4252 29.9302 54.8628C29.352 54.3003 28.5678 53.9843 27.75 53.9843ZM30.8333 10.227L38.8192 17.9948H33.9167C33.0989 17.9948 32.3147 17.6788 31.7364 17.1164C31.1582 16.5539 30.8333 15.7911 30.8333 14.9957V10.227ZM15.4167 35.9896H33.9167C34.7344 35.9896 35.5187 35.6736 36.0969 35.1111C36.6752 34.5487 37 33.7859 37 32.9904C37 32.195 36.6752 31.4322 36.0969 30.8697C35.5187 30.3073 34.7344 29.9913 33.9167 29.9913H15.4167C14.5989 29.9913 13.8147 30.3073 13.2364 30.8697C12.6582 31.4322 12.3333 32.195 12.3333 32.9904C12.3333 33.7859 12.6582 34.5487 13.2364 35.1111C13.8147 35.6736 14.5989 35.9896 15.4167 35.9896ZM27.75 41.9878H15.4167C14.5989 41.9878 13.8147 42.3038 13.2364 42.8662C12.6582 43.4287 12.3333 44.1915 12.3333 44.987C12.3333 45.7824 12.6582 46.5452 13.2364 47.1077C13.8147 47.6701 14.5989 47.9861 15.4167 47.9861H27.75C28.5678 47.9861 29.352 47.6701 29.9302 47.1077C30.5085 46.5452 30.8333 45.7824 30.8333 44.987C30.8333 44.1915 30.5085 43.4287 29.9302 42.8662C29.352 42.3038 28.5678 41.9878 27.75 41.9878ZM15.4167 23.993H18.5C19.3178 23.993 20.102 23.6771 20.6802 23.1146C21.2585 22.5522 21.5833 21.7893 21.5833 20.9939C21.5833 20.1985 21.2585 19.4357 20.6802 18.8732C20.102 18.3108 19.3178 17.9948 18.5 17.9948H15.4167C14.5989 17.9948 13.8147 18.3108 13.2364 18.8732C12.6582 19.4357 12.3333 20.1985 12.3333 20.9939C12.3333 21.7893 12.6582 22.5522 13.2364 23.1146C13.8147 23.6771 14.5989 23.993 15.4167 23.993ZM57.6892 42.8576C57.4025 42.5765 57.0615 42.3534 56.6858 42.2011C56.3101 42.0488 55.907 41.9704 55.5 41.9704C55.093 41.9704 54.69 42.0488 54.3142 42.2011C53.9385 42.3534 53.5975 42.5765 53.3108 42.8576L43.1667 52.7547L39.1892 48.8558C38.9017 48.5762 38.5604 48.3544 38.1848 48.203C37.8092 48.0517 37.4066 47.9738 37 47.9738C36.5934 47.9738 36.1909 48.0517 35.8152 48.203C35.4396 48.3544 35.0983 48.5762 34.8108 48.8558C34.5234 49.1355 34.2953 49.4674 34.1397 49.8328C33.9841 50.1982 33.9041 50.5898 33.9041 50.9852C33.9041 51.3807 33.9841 51.7723 34.1397 52.1376C34.2953 52.503 34.5234 52.835 34.8108 53.1146L40.9775 59.1129C41.2641 59.394 41.6052 59.6171 41.9809 59.7693C42.3566 59.9216 42.7596 60 43.1667 60C43.5737 60 43.9767 59.9216 44.3525 59.7693C44.7282 59.6171 45.0692 59.394 45.3558 59.1129L57.6892 47.1163C57.9782 46.8375 58.2076 46.5058 58.3641 46.1404C58.5206 45.7749 58.6012 45.3829 58.6012 44.987C58.6012 44.591 58.5206 44.199 58.3641 43.8336C58.2076 43.4681 57.9782 43.1364 57.6892 42.8576Z" fill="white"/>
</svg>
