<svg width="161" height="173" viewBox="0 0 161 173" fill="none" xmlns="http://www.w3.org/2000/svg">
<path fill-rule="evenodd" clip-rule="evenodd" d="M77.9512 41.9038L26.9733 76.7241C23.5503 79.0785 18.7826 79.6981 18.1713 77.8393C17.8046 76.848 18.1713 74.9893 21.472 72.7588L74.895 36.3275C74.895 36.3275 80.763 31.9905 86.142 35.584L143.599 73.1305C145.8 74.6175 144.455 76.3523 142.01 74.9893L84.0637 41.4081C81.3742 39.7972 80.5185 40.1689 77.9512 41.9038ZM46.4109 49.7104L78.6847 28.1491C78.6847 28.1491 80.3962 26.6621 82.719 28.1491L159.125 74.4936C159.492 74.7414 160.47 74.9893 160.836 74.4936C161.203 74.1218 161.081 73.3784 159.125 72.0153L87.12 23.3164C83.9415 21.2098 78.6847 20.4663 74.0393 23.6881L54.1126 37.6906C54.1126 37.6906 53.7459 29.3883 46.5332 29.6361L28.807 30.2557C28.807 30.2557 21.472 30.8752 22.0833 38.1863L23.7948 56.1541C23.7948 56.1541 24.1615 58.2606 21.7165 60.1194L1.5454 75.2371C0.200655 76.2284 -1.75534 79.822 3.13464 77.3437C8.02461 74.8653 25.5063 64.0847 25.5063 64.0847C25.5063 64.0847 30.6407 61.2346 30.274 53.6758L29.296 39.0537C29.296 39.0537 28.5625 35.8319 32.4745 35.8319L44.6994 35.708C44.6994 35.708 47.1444 34.8406 47.1444 37.8145L47.0222 42.0277C47.0222 42.0277 43.1102 44.3821 41.3987 46.7365C39.8094 49.0909 39.5649 52.1888 46.4109 49.7104ZM32.23 9.68566C32.23 9.68566 37.7312 16.501 36.5087 19.5989C35.2862 22.6968 32.8412 24.5555 30.8852 24.5555C28.4403 24.5555 26.851 22.5729 28.0735 20.3424C28.6848 19.1033 30.0295 18.3598 28.807 16.7489C27.34 14.7662 23.0613 8.4465 25.7508 4.72903C28.4403 0.887638 31.3742 0.144144 37.2422 0.0202279C42.9879 -0.227604 41.5209 1.87896 40.4207 2.1268C39.4427 2.37463 34.675 4.23336 32.9635 5.34861C31.252 6.46385 30.6407 7.20734 32.23 9.68566ZM41.6432 15.6336C42.9879 16.501 42.9879 17.3684 42.3767 17.988C42.0099 18.3598 40.9097 19.7228 40.4207 20.962C39.076 23.6881 44.3327 24.4316 45.9219 23.8121C47.7557 23.0686 50.2006 19.9707 50.2006 16.501C50.2006 13.1553 46.2887 11.4205 44.9439 10.9248C43.4769 10.5531 41.7654 10.0574 41.8877 9.06608C42.1322 8.07475 41.5209 7.82692 40.5429 7.82692C39.5649 7.82692 37.2422 9.06608 37.4867 10.3052C37.8535 11.7922 40.6652 14.7662 41.6432 15.6336Z" fill="#E85222"/>
<path fill-rule="evenodd" clip-rule="evenodd" d="M57.5352 75.4848H122.816C124.161 75.4848 125.261 76.6 125.261 77.9631V145.125C125.261 159.871 113.403 172.015 98.8555 172.015H33.5744C32.2296 172.015 31.1294 170.9 31.1294 169.537V102.374C31.1294 87.6285 42.9876 75.4848 57.5352 75.4848ZM60.9585 89.3632H61.0808C61.8143 89.3632 62.5478 90.1067 62.5478 90.8502V106.34H68.0485C68.4152 106.34 68.782 106.711 68.782 107.207V117.74C68.782 118.112 68.4152 118.483 68.0485 118.483H62.5478V129.016H68.0485C68.4152 129.016 68.782 129.388 68.782 129.76V140.293C68.782 140.788 68.4152 141.16 68.0485 141.16H62.504C61.9375 149.277 55.944 158.136 48.7336 158.136H48.6113C47.7556 158.136 47.1443 157.393 47.1443 156.526V107.455C47.1443 99.1525 53.379 89.3632 60.9585 89.3632ZM84.3081 89.3632H84.4304C85.2861 89.3632 85.8974 90.1067 85.8974 90.8502V106.34H91.1536C91.5204 106.34 91.8871 106.711 91.8871 107.207V117.74C91.8871 118.112 91.5204 118.483 91.1536 118.483H85.8974V129.016H91.1536C91.5204 129.016 91.8871 129.388 91.8871 129.76V140.293C91.8871 140.788 91.5204 141.16 91.1536 141.16H85.8536C85.2871 149.277 79.2936 158.136 72.0832 158.136H71.961C71.1052 158.136 70.494 157.393 70.494 156.526V107.455C70.494 99.1525 76.7287 89.3632 84.3081 89.3632ZM107.658 89.3632H107.902C108.636 89.3632 109.247 90.1067 109.247 90.8502V139.921C109.247 148.347 103.012 158.136 95.4328 158.136H95.3106C94.5771 158.136 93.9658 157.393 93.9658 156.526V107.455C93.9658 99.1525 100.078 89.3632 107.658 89.3632Z" fill="#E85222"/>
</svg>
