<svg width="28" height="28" viewBox="0 0 28 28" fill="none" xmlns="http://www.w3.org/2000/svg">
<path d="M25.2118 21.9629C26.9921 20.3762 28.0002 18.2614 28.0002 16.0667C28.0002 13.7343 26.9083 11.553 24.9256 9.9242C22.9959 8.33952 20.4418 7.46667 17.7332 7.46667C15.0247 7.46667 12.4705 8.33952 10.5411 9.92432C8.55844 11.553 7.46655 13.7343 7.46655 16.0667C7.46655 18.3991 8.55844 20.5804 10.5411 22.2092C12.4705 23.794 15.0247 24.6668 17.7332 24.6668C18.0941 24.6668 18.4573 24.6509 18.8173 24.6192L19.4325 25.1524C21.5519 26.9889 24.2622 27.9999 27.0666 28H27.9999V26.0133L27.7265 25.7401C26.6482 24.6585 25.7937 23.375 25.2118 21.9629ZM20.6551 23.7417L19.4207 22.6718L19.0091 22.7222C18.5858 22.774 18.1597 22.8 17.7332 22.8C13.1016 22.8 9.33322 19.7794 9.33322 16.0667C9.33322 12.354 13.1016 9.33334 17.7332 9.33334C22.3649 9.33334 26.1332 12.3539 26.1332 16.0667C26.1332 17.9164 25.2104 19.6433 23.5347 20.9292L22.9972 21.3417L23.2452 22.0438C23.7535 23.4776 24.5006 24.8151 25.455 25.9998C23.6777 25.7031 22.0168 24.9217 20.6551 23.7417Z" fill="#DF591D"/>
<path d="M2.57746 17.5861C3.45113 16.4802 4.1371 15.2382 4.60792 13.9098L4.85409 13.2112L4.31702 12.799C2.73688 11.5865 1.86667 9.95913 1.86667 8.21666C1.86667 4.71526 5.42553 1.86667 9.8 1.86667C13.0181 1.86667 15.7947 3.40842 17.0378 5.6175C17.2687 5.6063 17.5005 5.6 17.7333 5.6C18.201 5.6 18.6645 5.62269 19.1237 5.66808C18.6433 4.42353 17.809 3.28743 16.662 2.34535C14.8209 0.832942 12.3842 0 9.8 0C7.21583 0 4.77913 0.832942 2.9379 2.34535C1.04335 3.90163 0 5.98675 0 8.21666C0 10.305 0.953867 12.3172 2.63958 13.8308C2.08946 15.1547 1.28564 16.3582 0.273408 17.3734L0 17.6467V19.6H0.933333C2.65925 19.5998 4.36142 19.1979 5.90514 18.426C5.73587 17.7845 5.63668 17.1264 5.60933 16.4634C4.67237 17.0126 3.6461 17.3926 2.57746 17.5861Z" fill="#DF591D"/>
</svg>
