<svg width="25" height="24" viewBox="0 0 25 24" fill="none" xmlns="http://www.w3.org/2000/svg">
<path d="M16.5426 0H9.17562C2.45283 0 0.859131 1.5937 0.859131 8.31649V15.6835C0.859131 22.4063 2.45283 24 9.17562 24H16.5426C23.2654 24 24.8591 22.4063 24.8591 15.6835V8.31649C24.8591 1.5937 23.2497 0 16.5426 0ZM20.234 17.1205H18.4918C17.8319 17.1205 17.6286 16.597 16.4414 15.394C15.4102 14.3943 14.9534 14.2616 14.6992 14.2616C14.34 14.2616 14.238 14.3628 14.238 14.8555V16.4297C14.238 16.852 14.1052 17.1055 12.9878 17.1055C11.1398 17.1055 9.08937 15.988 7.65167 13.9061C5.48349 10.8552 4.89025 8.56998 4.89025 8.0975C4.89025 7.84326 4.9915 7.60551 5.47974 7.60551H7.22568C7.66742 7.60551 7.83541 7.80876 8.00716 8.28124C8.87038 10.7734 10.3081 12.9566 10.9013 12.9566C11.1203 12.9566 11.2216 12.8553 11.2216 12.2966V9.7227C11.1548 8.53548 10.5301 8.43349 10.5301 8.012C10.5301 7.80876 10.6981 7.60551 10.9673 7.60551H13.713C14.0842 7.60551 14.2207 7.80876 14.2207 8.24599V11.7184C14.2207 12.0934 14.3887 12.2261 14.49 12.2261C14.7089 12.2261 14.8964 12.0934 15.3022 11.6869C16.5561 10.2807 17.4546 8.1125 17.4546 8.1125C17.5716 7.85825 17.7749 7.62051 18.2166 7.62051H19.9625C20.486 7.62051 20.603 7.88975 20.486 8.26474C20.267 9.28021 18.1303 12.2959 18.1303 12.2959C17.9466 12.6004 17.8761 12.7331 18.1303 13.0728C18.3178 13.3271 18.9276 13.8543 19.3333 14.3268C20.0795 15.1743 20.6533 15.8853 20.8063 16.3772C20.978 16.8655 20.7245 17.1197 20.2318 17.1197L20.234 17.1205Z" fill="black" fill-opacity="0.4"/>
</svg>
